<svg xmlns="http://www.w3.org/2000/svg" width="24" height="24" fill="none"><path fill="#0B0D08" d="M0 12C0 5.373 5.373 0 12 0s12 5.373 12 12-5.373 12-12 12S0 18.627 0 12Z"/><path fill="#DFFEA1" d="M12 6.582a3.159 3.159 0 0 1 0-4.466 3.158 3.158 0 0 1 0 4.466ZM8.193 8.174a3.158 3.158 0 0 1-3.158-3.158 3.158 3.158 0 0 1 3.158 3.158Zm7.594 0a3.158 3.158 0 0 0 3.158-3.158 3.158 3.158 0 0 0-3.158 3.158Zm3.197 10.81a3.158 3.158 0 0 1-3.158-3.158 3.158 3.158 0 0 1 3.158 3.158Zm-13.959-.01a3.158 3.158 0 0 0 3.158-3.158 3.158 3.158 0 0 0-3.158 3.159ZM17.427 12a3.159 3.159 0 0 1 4.467 0 3.158 3.158 0 0 1-4.467 0ZM2.105 12a3.159 3.159 0 0 1 4.467 0 3.158 3.158 0 0 1-4.467 0ZM12 14.087a2.087 2.087 0 1 0 0-4.173 2.087 2.087 0 0 0 0 4.173Z"/><path fill="#DFFEA1" d="M12 15.617a3.617 3.617 0 1 0 0-7.234 3.617 3.617 0 0 0 0 7.234Zm2.241 3.397H9.76v1.85h4.482v-1.85Z"/></svg>