<svg width="116" height="24" fill="none" xmlns="http://www.w3.org/2000/svg"><path d="M34.607 8.992a1.595 1.595 0 0 0-.72-1.2c-.423-.288-.954-.432-1.595-.432-.458 0-.855.073-1.19.218a1.832 1.832 0 0 0-.78.59c-.182.247-.273.53-.273.846 0 .266.062.495.185.688.128.193.293.355.497.486.207.127.43.234.666.322.237.084.464.153.683.207l1.091.284c.357.088.723.206 1.098.355a4.4 4.4 0 0 1 1.042.59c.32.243.579.546.775.906.2.36.3.791.3 1.294a2.97 2.97 0 0 1-.49 1.686c-.325.492-.796.88-1.415 1.163-.615.284-1.359.426-2.232.426-.837 0-1.562-.133-2.173-.398-.611-.266-1.09-.643-1.436-1.13-.345-.492-.537-1.074-.573-1.747h1.692c.033.403.164.74.393 1.01.233.265.53.463.89.595.364.127.763.19 1.196.19.477 0 .9-.074 1.272-.223a2.13 2.13 0 0 0 .884-.633 1.5 1.5 0 0 0 .322-.956c0-.331-.095-.602-.284-.813a2.097 2.097 0 0 0-.759-.524 7.41 7.41 0 0 0-1.075-.366l-1.321-.36c-.895-.244-1.605-.603-2.129-1.076-.52-.473-.78-1.099-.78-1.878 0-.644.174-1.206.523-1.686.35-.48.823-.854 1.42-1.12.597-.269 1.27-.404 2.02-.404.757 0 1.424.133 2.003.399.582.266 1.04.631 1.376 1.097.334.462.51.994.524 1.594h-1.627Zm3.795 8.243V6.055h1.687v5.34h.137l4.689-5.34h2.123L42.53 11.09l4.526 6.146h-2.03L41.41 12.24l-1.32 1.518v3.477h-1.688Zm9.346-11.18h1.916l2.92 5.083h.12l2.921-5.083h1.917l-4.056 6.791v4.39h-1.682v-4.39l-4.056-6.79Zm13.575 11.18-3.1-11.18h1.774l2.178 8.658h.104l2.265-8.658h1.758l2.265 8.664h.104l2.173-8.664h1.78l-3.107 11.18H67.82l-2.353-8.374h-.088l-2.353 8.374h-1.703Zm21.994-5.59c0 1.194-.218 2.22-.655 3.08-.436.854-1.035 1.513-1.796 1.975-.757.459-1.617.688-2.582.688-.968 0-1.832-.23-2.593-.688-.757-.462-1.353-1.122-1.79-1.981-.437-.86-.655-1.884-.655-3.074 0-1.193.218-2.218.655-3.073.437-.859 1.033-1.518 1.79-1.976.76-.462 1.625-.694 2.593-.694.965 0 1.825.232 2.582.694.761.458 1.36 1.117 1.796 1.976.437.855.655 1.88.655 3.073Zm-1.67 0c0-.91-.147-1.676-.442-2.298-.291-.626-.692-1.099-1.201-1.42a3.12 3.12 0 0 0-1.72-.485 3.13 3.13 0 0 0-1.725.486c-.506.32-.906.793-1.2 1.42-.292.621-.437 1.387-.437 2.297 0 .91.145 1.678.436 2.304.295.622.695 1.095 1.201 1.42.506.32 1.081.48 1.725.48.64 0 1.214-.16 1.72-.48.51-.325.91-.798 1.2-1.42.296-.626.443-1.394.443-2.304Zm3.774 5.59V6.055h3.985c.866 0 1.585.15 2.156.448.575.298 1.004.711 1.288 1.24.284.523.426 1.13.426 1.817 0 .684-.144 1.287-.431 1.807-.284.517-.713.919-1.288 1.206-.572.288-1.29.432-2.157.432h-3.019v-1.453h2.866c.546 0 .99-.078 1.332-.234.346-.157.599-.384.76-.683.16-.298.24-.656.24-1.075 0-.422-.082-.788-.246-1.097a1.586 1.586 0 0 0-.76-.71c-.341-.167-.79-.251-1.347-.251h-2.119v9.733h-1.686Zm5.519-5.044 2.762 5.044H91.78l-2.707-5.044h1.867Zm3.837-4.684V6.055h8.653v1.452h-3.489v9.728h-1.68V7.507h-3.484Zm10.565 9.728V6.055h1.687v4.859h5.573V6.055h1.693v11.18h-1.693v-4.874h-5.573v4.874h-1.687Z" fill="#DFFEA1"/><g clip-path="url('#clip0_310_1041')" fill="#DFFEA1"><path d="M11.53 5.754a3.642 3.642 0 0 1 0-5.15 3.642 3.642 0 0 1 0 5.15ZM7.14 7.589a3.642 3.642 0 0 1-3.642-3.641A3.642 3.642 0 0 1 7.14 7.589ZM15.896 7.589a3.642 3.642 0 0 0 3.641-3.641 3.642 3.642 0 0 0-3.641 3.641ZM19.582 20.052a3.642 3.642 0 0 1-3.642-3.641 3.642 3.642 0 0 1 3.642 3.641ZM3.488 20.042A3.642 3.642 0 0 0 7.129 16.4a3.642 3.642 0 0 0-3.641 3.642ZM17.787 12a3.642 3.642 0 0 1 5.15 0 3.642 3.642 0 0 1-5.15 0ZM.122 12a3.642 3.642 0 0 1 5.15 0 3.642 3.642 0 0 1-5.15 0ZM11.53 14.406a2.406 2.406 0 1 0 0-4.812 2.406 2.406 0 0 0 0 4.812Z"/><path d="M11.53 16.17a4.17 4.17 0 1 0 0-8.34 4.17 4.17 0 0 0 0 8.34ZM14.113 20.087H8.945v2.133h5.168v-2.133Z"/></g><defs><clipPath id="clip0_310_1041"><path fill="#fff" transform="translate(0 .47)" d="M0 0h23.059v23.059H0z"/></clipPath></defs></svg>