<svg xmlns="http://www.w3.org/2000/svg" width="64" height="64" fill="none"><path fill="url('#a')" d="M32 14.663C28.053 10.716 28.053 4.316 32 .37c3.947 3.946 3.947 10.346 0 14.293Z"/><path fill="url('#b')" d="M19.817 19.757c-5.581 0-10.107-4.525-10.107-10.107 5.582 0 10.107 4.525 10.107 10.107Z"/><path fill="url('#c')" d="M44.119 19.757c5.581 0 10.107-4.525 10.107-10.107-5.582 0-10.107 4.525-10.107 10.107Z"/><path fill="url('#d')" d="M54.35 54.35c-5.582 0-10.107-4.526-10.107-10.107 5.582 0 10.107 4.525 10.107 10.107Z"/><path fill="url('#e')" d="M9.68 54.32c5.582 0 10.107-4.525 10.107-10.107-5.581 0-10.107 4.525-10.107 10.107Z"/><path fill="url('#f')" d="M49.368 32c3.946-3.947 10.346-3.947 14.293 0-3.947 3.946-10.347 3.946-14.293 0Z"/><path fill="url('#g')" d="M.338 32c3.946-3.947 10.346-3.947 14.293 0-3.947 3.946-10.347 3.946-14.293 0Z"/><path fill="url('#h')" d="M32 38.677a6.677 6.677 0 1 0 0-13.354 6.677 6.677 0 0 0 0 13.354Z"/><path fill="url('#i')" d="M32 43.574c6.392 0 11.574-5.182 11.574-11.574 0-6.392-5.182-11.574-11.574-11.574-6.392 0-11.574 5.182-11.574 11.574 0 6.392 5.182 11.574 11.574 11.574Z"/><path fill="url('#j')" d="M39.172 54.445H24.827v5.92h14.345v-5.92Z"/><defs><linearGradient id="a" x1="32" x2="32" y1=".37" y2="14.663" gradientUnits="userSpaceOnUse"><stop stop-color="#F8FDEA"/><stop offset="1" stop-color="#D9F28F"/></linearGradient><linearGradient id="b" x1="14.764" x2="14.764" y1="9.65" y2="19.757" gradientUnits="userSpaceOnUse"><stop stop-color="#F8FDEA"/><stop offset="1" stop-color="#D9F28F"/></linearGradient><linearGradient id="c" x1="49.172" x2="49.172" y1="9.65" y2="19.757" gradientUnits="userSpaceOnUse"><stop stop-color="#F8FDEA"/><stop offset="1" stop-color="#D9F28F"/></linearGradient><linearGradient id="d" x1="49.296" x2="49.296" y1="44.243" y2="54.35" gradientUnits="userSpaceOnUse"><stop stop-color="#F8FDEA"/><stop offset="1" stop-color="#D9F28F"/></linearGradient><linearGradient id="e" x1="14.734" x2="14.734" y1="44.213" y2="54.32" gradientUnits="userSpaceOnUse"><stop stop-color="#F8FDEA"/><stop offset="1" stop-color="#D9F28F"/></linearGradient><linearGradient id="f" x1="56.514" x2="56.514" y1="29.04" y2="34.96" gradientUnits="userSpaceOnUse"><stop stop-color="#F8FDEA"/><stop offset="1" stop-color="#D9F28F"/></linearGradient><linearGradient id="g" x1="7.484" x2="7.484" y1="29.04" y2="34.96" gradientUnits="userSpaceOnUse"><stop stop-color="#F8FDEA"/><stop offset="1" stop-color="#D9F28F"/></linearGradient><linearGradient id="h" x1="32" x2="32" y1="25.323" y2="38.677" gradientUnits="userSpaceOnUse"><stop stop-color="#F8FDEA"/><stop offset="1" stop-color="#D9F28F"/></linearGradient><linearGradient id="i" x1="32" x2="32" y1="20.426" y2="43.574" gradientUnits="userSpaceOnUse"><stop stop-color="#F8FDEA"/><stop offset="1" stop-color="#D9F28F"/></linearGradient><linearGradient id="j" x1="31.999" x2="31.999" y1="54.445" y2="60.366" gradientUnits="userSpaceOnUse"><stop stop-color="#F8FDEA"/><stop offset="1" stop-color="#D9F28F"/></linearGradient></defs></svg>