<svg xmlns="http://www.w3.org/2000/svg" width="119" height="24" fill="none"><g fill="#C3C4C6" clip-path="url('#a')"><path d="M69.085 17.34h2.614V7.477h-2.614v9.861Zm0-11.4h2.614V3.595h-2.614V5.94Zm4.3 14.629h2.614v-4.345h.038c.557.846 1.46 1.403 2.845 1.403 2.537 0 4.267-2.018 4.267-5.209 0-3.076-1.672-5.21-4.287-5.21-1.345 0-2.268.635-2.902 1.5h-.058v-1.23h-2.518v13.09Zm4.94-5.114c-1.558 0-2.384-1.172-2.384-2.96 0-1.769.653-3.172 2.287-3.172 1.615 0 2.268 1.307 2.268 3.172 0 1.865-.845 2.96-2.172 2.96Zm10.039 2.172c2.46 0 4.152-1.191 4.152-3.171 0-2.307-1.826-2.769-3.48-3.114-1.403-.289-2.71-.366-2.71-1.212 0-.71.673-1.095 1.692-1.095 1.115 0 1.788.384 1.903 1.441h2.364c-.192-1.98-1.634-3.268-4.228-3.268-2.25 0-4.018 1.02-4.018 3.153 0 2.153 1.73 2.634 3.498 2.98 1.346.269 2.595.365 2.595 1.307 0 .692-.653 1.134-1.806 1.134-1.173 0-1.98-.5-2.153-1.634H83.75c.153 2.095 1.749 3.48 4.613 3.48Zm14.078-.287V7.478h-2.614v5.69c0 1.307-.75 2.23-1.98 2.23-1.115 0-1.634-.634-1.634-1.788V7.478h-2.595v6.575c0 2.152 1.23 3.556 3.422 3.556 1.384 0 2.152-.52 2.825-1.423h.058v1.154h2.518Zm1.691 0h2.615v-5.73c0-1.307.711-2.152 1.769-2.152.961 0 1.518.576 1.518 1.691v6.19h2.614v-5.728c0-1.308.673-2.153 1.769-2.153.961 0 1.519.576 1.519 1.691v6.19h2.614v-6.632c0-2.153-1.173-3.499-3.249-3.499-1.249 0-2.288.654-2.96 1.73h-.038c-.481-1.038-1.481-1.73-2.73-1.73-1.365 0-2.326.692-2.864 1.596h-.058V7.478h-2.519v9.861Zm-103.188 0H3.56V3.594H.945v13.744Zm9.007.287c3.057 0 5.152-2.268 5.152-5.209s-2.095-5.21-5.152-5.21c-3.056 0-5.152 2.269-5.152 5.21s2.096 5.21 5.152 5.21Zm0-1.999c-1.615 0-2.499-1.288-2.499-3.21s.884-3.23 2.5-3.23c1.595 0 2.498 1.308 2.498 3.23s-.903 3.21-2.499 3.21Zm10.712 5.075c1.46 0 2.73-.346 3.556-1.115.73-.673 1.173-1.615 1.173-2.999V7.478h-2.519v1.038h-.038c-.596-.827-1.5-1.308-2.73-1.308-2.499 0-4.267 1.884-4.267 4.825 0 2.98 2.153 4.71 4.344 4.71 1.25 0 2-.5 2.576-1.153h.058v1.076c0 1.346-.712 2.057-2.192 2.057-1.211 0-1.768-.48-1.98-1.096H16.05c.27 1.923 1.922 3.076 4.614 3.076Zm-.039-6.055c-1.345 0-2.23-.98-2.23-2.653 0-1.653.885-2.691 2.21-2.691 1.577 0 2.346 1.23 2.346 2.672 0 1.46-.673 2.672-2.326 2.672Zm11.122 2.98c3.057 0 5.152-2.269 5.152-5.21s-2.095-5.21-5.152-5.21c-3.056 0-5.152 2.269-5.152 5.21s2.096 5.21 5.152 5.21Zm0-2c-1.615 0-2.499-1.288-2.499-3.21s.884-3.23 2.499-3.23c1.596 0 2.5 1.308 2.5 3.23s-.904 3.21-2.5 3.21Z"/><path fill-rule="evenodd" d="M52.754.786c6.193 0 11.213 5.02 11.213 11.213s-5.02 11.214-11.213 11.214-11.214-5.02-11.214-11.214C41.54 5.806 46.56.786 52.754.786Zm-.406.839c-1.279.18-2.497 1.208-3.443 2.927-.274.499-.521 1.05-.737 1.645a18.761 18.761 0 0 1 4.18-.543V1.625ZM47.22 6.466c.269-.842.597-1.616.975-2.304.469-.853 1.025-1.589 1.652-2.154a10.425 10.425 0 0 0-7.085 7.085c.566-.627 1.302-1.183 2.154-1.652a12.946 12.946 0 0 1 2.304-.975Zm-.269.948a18.756 18.756 0 0 0-.543 4.18h-4.029c.18-1.28 1.208-2.497 2.928-3.443.498-.274 1.05-.522 1.644-.737Zm.268 4.18c.033-1.618.266-3.136.651-4.478a17.647 17.647 0 0 1 4.478-.652v1.751a5.966 5.966 0 0 1-3.379 3.38h-1.75Zm-.811.81h-4.029c.18 1.28 1.208 2.498 2.928 3.444.498.274 1.05.521 1.644.737a18.756 18.756 0 0 1-.543-4.18Zm1.462 4.479a17.649 17.649 0 0 1-.651-4.478h1.75a5.966 5.966 0 0 1 3.38 3.379v1.75a17.643 17.643 0 0 1-4.479-.651Zm-.65.65a12.95 12.95 0 0 1-2.304-.975c-.852-.469-1.588-1.025-2.154-1.652a10.425 10.425 0 0 0 7.085 7.085c-.627-.565-1.183-1.301-1.652-2.154a12.938 12.938 0 0 1-.975-2.304Zm5.128 4.84c-1.279-.18-2.497-1.207-3.443-2.926a11.671 11.671 0 0 1-.737-1.645 18.77 18.77 0 0 0 4.18.543v4.029Zm3.312-.382c.627-.565 1.183-1.301 1.652-2.154.379-.688.707-1.462.975-2.304a12.955 12.955 0 0 0 2.305-.975c.852-.469 1.588-1.025 2.153-1.652a10.425 10.425 0 0 1-7.085 7.085Zm1.68-4.189a11.706 11.706 0 0 1-.738 1.645c-.946 1.719-2.164 2.747-3.443 2.927v-4.029c1.482-.03 2.895-.22 4.18-.543Zm1.216-1.217a11.668 11.668 0 0 0 1.645-.737c1.72-.946 2.747-2.164 2.927-3.443H59.1a18.78 18.78 0 0 1-.544 4.18Zm-.267-4.18c-.034 1.617-.266 3.136-.652 4.478a17.64 17.64 0 0 1-4.478.651v-1.75a5.967 5.967 0 0 1 3.38-3.38h1.75Zm.81-.81h4.03c-.18-1.28-1.209-2.498-2.928-3.444a11.657 11.657 0 0 0-1.645-.737 18.78 18.78 0 0 1 .544 4.18Zm-1.462-4.479c.386 1.342.618 2.86.652 4.478h-1.75a5.966 5.966 0 0 1-3.38-3.38v-1.75c1.618.034 3.136.267 4.478.652Zm.65-.65c.842.268 1.616.596 2.305.975.852.469 1.588 1.025 2.153 1.652a10.425 10.425 0 0 0-7.085-7.085c.627.565 1.183 1.301 1.652 2.154.379.688.707 1.462.975 2.304ZM53.16 1.625c1.28.18 2.497 1.208 3.443 2.927.274.499.522 1.05.738 1.645a18.766 18.766 0 0 0-4.181-.543V1.625Z" clip-rule="evenodd"/></g><defs><clipPath id="a"><path fill="#fff" d="M.323.786h118.443v22.427H.323z"/></clipPath></defs></svg>