<svg xmlns="http://www.w3.org/2000/svg" width="71" height="14" fill="none"><g fill="#C3C4C6" clip-path="url('#a')"><path fill-rule="evenodd" d="M8.984 4.055a3.627 3.627 0 0 0-1.953-.567V.122c1.39 0 2.75.395 3.905 1.134a6.804 6.804 0 0 1 2.59 3.022c.532 1.23.671 2.584.4 3.89s-.94 2.506-1.924 3.447a7.132 7.132 0 0 1-3.6 1.843 7.32 7.32 0 0 1-4.062-.383 6.974 6.974 0 0 1-3.155-2.48A6.532 6.532 0 0 1 0 6.855h3.515c0 .665.206 1.316.593 1.87.386.553.935.985 1.577 1.24a3.66 3.66 0 0 0 2.031.191 3.566 3.566 0 0 0 1.8-.921c.492-.471.827-1.07.962-1.724a3.234 3.234 0 0 0-.2-1.945 3.402 3.402 0 0 0-1.294-1.51Z" clip-rule="evenodd"/><path fill-rule="evenodd" d="M3.515.122c0 .442-.09.88-.267 1.288a3.36 3.36 0 0 1-.762 1.092 3.53 3.53 0 0 1-1.14.73A3.65 3.65 0 0 1 0 3.488v3.366c.923 0 1.837-.174 2.69-.512a7.059 7.059 0 0 0 2.281-1.46 6.72 6.72 0 0 0 1.524-2.184A6.486 6.486 0 0 0 7.031.122H3.515Z" clip-rule="evenodd"/><path d="M44.158 4.987h-1.705v5.188h1.705V4.987Zm-1.516-.971c.179.17.402.256.67.256a.89.89 0 0 0 .657-.256.891.891 0 0 0 .256-.641.868.868 0 0 0-.256-.64.89.89 0 0 0-.658-.257.928.928 0 0 0-.669.256.868.868 0 0 0-.256.641c0 .25.085.463.256.64Zm-24.66 6.16V2.637h1.75v6.064h3.49v1.473h-5.24Z"/><path fill-rule="evenodd" d="M26.374 10.293a3.246 3.246 0 0 1-1.516-.353 2.81 2.81 0 0 1-1.06-.982 2.55 2.55 0 0 1-.39-1.388c0-.512.13-.971.39-1.377.261-.405.614-.726 1.06-.96.446-.243.951-.363 1.516-.363s1.07.117 1.516.352a2.73 2.73 0 0 1 1.06.971c.26.406.39.865.39 1.377s-.13.975-.39 1.388a2.81 2.81 0 0 1-1.06.982 3.204 3.204 0 0 1-1.516.353Zm0-1.484c.245 0 .46-.05.647-.15.185-.106.327-.252.423-.437.104-.193.156-.41.156-.652 0-.242-.052-.452-.156-.63a1.07 1.07 0 0 0-.435-.426 1.214 1.214 0 0 0-.635-.16c-.238 0-.45.053-.635.16-.186.1-.331.242-.435.427a1.284 1.284 0 0 0-.156.64c0 .235.052.448.156.64.104.186.249.332.435.438.185.1.397.15.635.15Zm4.316 3.395c.454.199.978.298 1.572.298.58 0 1.096-.11 1.55-.33.453-.221.81-.527 1.07-.919.26-.39.39-.854.39-1.387V4.987H33.6v.349a1.814 1.814 0 0 0-.424-.253 2.32 2.32 0 0 0-.992-.203c-.498 0-.94.114-1.326.342a2.41 2.41 0 0 0-.915.918 2.547 2.547 0 0 0-.334 1.302c0 .477.111.911.334 1.303.223.391.528.7.914.929.387.227.83.341 1.327.341.364 0 .695-.067.992-.203.144-.065.274-.142.39-.231v.327c0 .363-.122.644-.368.844-.237.2-.568.299-.992.299-.342 0-.635-.057-.88-.171a2.02 2.02 0 0 1-.647-.502l-1.048 1.004c.26.355.613.63 1.06.822Zm2.43-3.79c-.17.1-.375.15-.613.15-.237 0-.446-.05-.624-.15a1.074 1.074 0 0 1-.401-.406 1.167 1.167 0 0 1-.145-.566c0-.213.048-.405.145-.576.096-.17.234-.306.412-.406.179-.1.383-.15.613-.15.238 0 .442.05.613.15.179.1.313.235.402.406.096.17.145.363.145.576 0 .214-.049.406-.145.577a.996.996 0 0 1-.401.395Zm5.742 1.879a3.245 3.245 0 0 1-1.517-.353 2.81 2.81 0 0 1-1.059-.982 2.548 2.548 0 0 1-.39-1.388c0-.512.13-.971.39-1.377.26-.405.613-.726 1.06-.96a3.126 3.126 0 0 1 1.516-.363c.564 0 1.07.117 1.515.352a2.73 2.73 0 0 1 1.06.971c.26.406.39.865.39 1.377s-.13.975-.39 1.388a2.81 2.81 0 0 1-1.06.982 3.203 3.203 0 0 1-1.515.353Zm0-1.484c.245 0 .46-.05.646-.15.186-.106.327-.252.424-.437.104-.193.156-.41.156-.652 0-.242-.052-.452-.156-.63a1.068 1.068 0 0 0-.435-.426 1.214 1.214 0 0 0-.635-.16c-.238 0-.45.053-.636.16-.186.1-.33.242-.435.427a1.284 1.284 0 0 0-.156.64c0 .235.052.448.156.64.104.186.25.332.435.438.186.1.398.15.636.15Zm9.396 1.473c-.364 0-.699-.068-1.003-.203a2.15 2.15 0 0 1-.435-.255v2.54h-1.683V4.987h1.705v.358c.124-.097.261-.18.413-.251.304-.143.639-.214 1.003-.214.513 0 .966.118 1.36.353.401.234.713.555.936.96.23.406.346.869.346 1.388 0 .52-.115.982-.346 1.388a2.474 2.474 0 0 1-.936.96c-.394.236-.847.353-1.36.353Zm-.312-1.473c.245 0 .457-.054.635-.16.186-.107.331-.253.435-.438.104-.185.156-.395.156-.63 0-.242-.052-.455-.156-.64a1.069 1.069 0 0 0-.435-.427 1.191 1.191 0 0 0-.624-.16c-.238 0-.45.053-.635.16-.179.1-.32.242-.424.427a1.284 1.284 0 0 0-.156.64c0 .235.048.445.145.63.104.185.249.33.435.438.185.106.393.16.624.16Z" clip-rule="evenodd"/><path d="M52.57 10.186c.312.078.627.117.947.117.676 0 1.211-.15 1.605-.448.401-.299.602-.701.602-1.206 0-.328-.063-.591-.19-.79a1.441 1.441 0 0 0-.49-.491 2.987 2.987 0 0 0-.635-.289 10.126 10.126 0 0 0-.636-.181c-.2-.05-.364-.107-.49-.17-.126-.065-.19-.15-.19-.257 0-.1.049-.175.145-.224.097-.057.242-.086.435-.086.2 0 .405.04.613.118.215.078.409.213.58.405l.97-.94a2.236 2.236 0 0 0-.96-.672 3.353 3.353 0 0 0-1.27-.234c-.438 0-.821.07-1.148.213-.327.142-.58.338-.758.587-.178.242-.268.53-.268.865 0 .313.064.573.19.78.126.198.29.355.49.469.2.114.413.203.636.267l.635.181c.2.05.364.11.49.182.135.064.201.16.201.288 0 .1-.056.178-.167.235-.104.057-.256.085-.457.085-.29 0-.557-.05-.802-.15a1.954 1.954 0 0 1-.636-.437l-.97.94c.186.192.409.363.669.512.268.142.554.253.858.33Zm6.264.106a2.94 2.94 0 0 1-1.326-.288c-.38-.2-.676-.47-.892-.811a2.225 2.225 0 0 1-.323-1.196v-3.01h1.705v2.989c0 .178.03.33.09.459a.717.717 0 0 0 .29.299.919.919 0 0 0 .456.107c.253 0 .454-.075.602-.225.15-.156.223-.37.223-.64v-2.99h1.706v3c0 .456-.108.858-.323 1.207a2.288 2.288 0 0 1-.892.811c-.38.192-.818.288-1.316.288Zm5.084-5.305h-1.705v5.188h1.706V7.143c0-.177.037-.327.11-.448a.802.802 0 0 1 .324-.277.958.958 0 0 1 .457-.107c.246 0 .45.074.613.224.172.142.257.345.257.608v3.032h1.706V7.143c0-.177.037-.327.111-.448a.8.8 0 0 1 .324-.277.957.957 0 0 1 .456-.107c.246 0 .45.074.614.224.17.142.256.345.256.608v3.032h1.706V6.962c0-.434-.097-.804-.29-1.11a1.828 1.828 0 0 0-.77-.716 2.306 2.306 0 0 0-1.103-.256c-.424 0-.807.09-1.148.267-.222.114-.416.26-.583.439a1.876 1.876 0 0 0-.566-.46 2.067 2.067 0 0 0-1.014-.246c-.401 0-.762.082-1.081.246-.14.068-.266.15-.38.244v-.383Z"/></g><defs><clipPath id="a"><path fill="#fff" d="M0 .122h71.009v13.465H0z"/></clipPath></defs></svg>