<svg xmlns="http://www.w3.org/2000/svg" width="67" height="16" fill="none"><g fill="#C3C4C6" clip-path="url('#a')"><path d="M1.33 11.65V3.885L5.384 6.04v3.474l3.244 1.747 3.244-1.747V6.04l4.056-2.157v7.767l-7.3 3.883-7.3-3.883Z"/><path fill-rule="evenodd" d="M3.357 4.962 1.329 3.884 8.63 0l7.3 3.884L13.9 4.962v5.718l-5.272 2.912-5.272-2.912V4.962Zm10.324.117-1.808.962v-.022L8.63 4.272 5.385 6.019v.022l-1.808-.962v5.481l5.052 2.791 5.052-2.79V5.078Z" clip-rule="evenodd"/><path d="M19.815 11.037V4.511H21.1v5.406h3.114v1.119h-4.399Zm7.173.13c-.48 0-.911-.093-1.294-.28a2.155 2.155 0 0 1-.905-.81c-.22-.355-.331-.78-.331-1.277v-.15c0-.497.11-.922.33-1.276.221-.355.523-.625.906-.811.383-.187.814-.28 1.294-.28.48 0 .912.093 1.295.28.383.186.684.456.905.81.22.355.33.78.33 1.277v.15c0 .497-.11.922-.33 1.276-.22.355-.522.625-.905.811-.383.187-.814.28-1.295.28Zm0-1.044c.377 0 .688-.115.935-.345.246-.236.37-.571.37-1.006v-.094c0-.435-.124-.767-.37-.997-.24-.236-.552-.354-.935-.354-.376 0-.687.118-.934.354-.247.23-.37.562-.37.997v.094c0 .435.123.77.37 1.006.247.23.558.345.934.345Zm2.991-1.38v-.148c0-.485.1-.898.302-1.24.201-.348.467-.612.798-.792.337-.187.704-.28 1.1-.28.441 0 .775.075 1.002.224.227.149.393.304.497.466h.175v-.56h1.207v5.444c0 .317-.098.568-.292.755-.195.192-.455.289-.779.289h-3.231v-1.026h2.803c.181 0 .272-.093.272-.28v-1.202h-.175c-.065.1-.156.202-.272.308-.117.1-.273.183-.468.252a2.262 2.262 0 0 1-.74.102c-.395 0-.762-.09-1.099-.27a2.128 2.128 0 0 1-.798-.792c-.201-.348-.302-.765-.302-1.25Zm2.55 1.287c.376 0 .691-.115.944-.345.253-.23.38-.553.38-.97v-.092c0-.423-.127-.746-.38-.97-.246-.23-.561-.345-.944-.345-.376 0-.69.115-.944.345-.253.224-.38.547-.38.97v.093c0 .416.127.74.38.969.253.23.568.345.944.345Zm5.75 1.137c-.48 0-.912-.093-1.295-.28a2.155 2.155 0 0 1-.905-.81c-.22-.355-.331-.78-.331-1.277v-.15c0-.497.11-.922.33-1.276.221-.355.523-.625.906-.811.383-.187.814-.28 1.294-.28.48 0 .912.093 1.295.28.383.186.684.456.905.81.22.355.33.78.33 1.277v.15c0 .497-.11.922-.33 1.276-.22.355-.522.625-.905.811a2.92 2.92 0 0 1-1.295.28Zm0-1.044c.376 0 .687-.115.934-.345.246-.236.37-.571.37-1.006v-.094c0-.435-.124-.767-.37-.997-.24-.236-.552-.354-.935-.354-.376 0-.687.118-.934.354-.246.23-.37.562-.37.997v.094c0 .435.124.77.37 1.006.247.23.558.345.934.345Zm3.224.913V6.414h1.226v4.623h-1.226Zm.613-5.163a.826.826 0 0 1-.564-.205.698.698 0 0 1-.224-.54c0-.224.074-.405.224-.541a.826.826 0 0 1 .564-.205c.227 0 .415.068.565.205.149.136.223.317.223.54a.698.698 0 0 1-.223.54.804.804 0 0 1-.565.206Zm1.534 7.028V6.414h1.207v.559h.176c.11-.18.281-.339.515-.476.234-.142.568-.214 1.003-.214.39 0 .75.093 1.08.28.331.18.597.447.798.801.201.354.302.783.302 1.286v.15c0 .503-.1.932-.302 1.286a2.091 2.091 0 0 1-.798.81c-.33.18-.69.271-1.08.271a2.32 2.32 0 0 1-.74-.102 1.457 1.457 0 0 1-.477-.243 1.754 1.754 0 0 1-.282-.317h-.175v2.396H43.65Zm2.53-2.76c.384 0 .699-.114.945-.344.253-.236.38-.578.38-1.025v-.094c0-.447-.127-.786-.38-1.016a1.33 1.33 0 0 0-.944-.354 1.33 1.33 0 0 0-.944.354c-.253.23-.38.569-.38 1.016v.094c0 .447.127.789.38 1.025.253.23.567.345.944.345Zm5.244 1.026c-.63 0-1.145-.13-1.548-.392a1.605 1.605 0 0 1-.73-1.118l1.13-.28c.045.218.12.389.223.513a.96.96 0 0 0 .4.27c.161.05.337.075.525.075.285 0 .496-.047.633-.14.136-.1.204-.22.204-.363a.355.355 0 0 0-.195-.327c-.13-.08-.337-.146-.623-.195l-.272-.047a5.34 5.34 0 0 1-.925-.252 1.73 1.73 0 0 1-.672-.456c-.168-.193-.253-.441-.253-.746 0-.46.176-.81.526-1.053.35-.249.811-.373 1.382-.373.539 0 .987.115 1.343.345.357.23.59.531.701.904l-1.139.336c-.052-.237-.159-.404-.32-.504-.157-.1-.351-.149-.585-.149-.233 0-.412.04-.535.121a.352.352 0 0 0-.185.317c0 .15.065.261.195.336.13.068.304.12.525.158l.272.047c.364.062.692.146.984.251.298.1.532.246.7.438.176.187.263.442.263.765 0 .484-.185.86-.555 1.127-.363.261-.853.392-1.47.392Zm4.5-.056a1.98 1.98 0 0 1-.992-.242 1.751 1.751 0 0 1-.652-.69 2.11 2.11 0 0 1-.234-1.006v-2.76h1.227V9.08c0 .348.087.61.262.783.182.174.438.261.77.261.375 0 .668-.118.875-.354.208-.242.311-.578.311-1.007V6.414h1.227v4.623H57.51v-.606h-.175c-.078.155-.224.307-.438.457-.214.149-.539.223-.974.223Zm3.72-.074V6.414h1.207v.503h.176c.084-.155.224-.289.418-.4.195-.119.45-.178.77-.178.343 0 .619.065.826.196.208.124.367.289.477.494h.175c.11-.199.266-.364.468-.494.2-.13.486-.196.856-.196.298 0 .568.062.808.187.246.118.441.301.584.55.149.242.223.55.223.922v3.039h-1.226V8.082c0-.255-.068-.444-.204-.568-.136-.13-.328-.196-.574-.196-.28 0-.497.087-.653.26-.148.169-.223.41-.223.728v2.73h-1.227V8.083c0-.255-.068-.444-.204-.568-.136-.13-.327-.196-.574-.196-.28 0-.496.087-.652.26-.15.169-.224.41-.224.728v2.73h-1.226Z"/></g><defs><clipPath id="a"><path fill="#fff" d="M.95 0H67v15.71H.95z"/></clipPath></defs></svg>