<svg xmlns="http://www.w3.org/2000/svg" width="111" height="24" fill="none"><g fill="#C3C4C6" clip-path="url('#a')"><path d="M17.576 10.629a3.074 3.074 0 0 0-.88 2.463l-.015-.015a3.652 3.652 0 0 1-3.947 3.948l.015.015a3.094 3.094 0 1 0 2.793 2.79l.016.015a3.652 3.652 0 0 1 3.948-3.947l-.016-.015a3.088 3.088 0 1 0-1.911-5.254h-.003Zm-6.205 4.429-.016-.015A3.054 3.054 0 0 0 14.7 11.7l.016.015a3.653 3.653 0 0 1 3.948-3.948l-.016-.015a3.093 3.093 0 1 0-2.79-2.79l-.016-.017a3.654 3.654 0 0 1-3.948 3.948l.015.016a3.054 3.054 0 0 0-3.344 3.342l-.015-.015a3.655 3.655 0 0 1-3.948 3.948l.015.015a3.093 3.093 0 1 0 2.79 2.79l.017.016a3.653 3.653 0 0 1 3.947-3.948ZM5.736 13.37a3.071 3.071 0 0 0 .88-2.464l.015.015a3.654 3.654 0 0 1 3.95-3.947l-.016-.015a3.092 3.092 0 1 0-2.79-2.79l-.016-.016A3.653 3.653 0 0 1 3.811 8.1l.015.015a3.087 3.087 0 1 0 1.912 5.254h-.002ZM31.787 4.98h2.498v12.156h-2.498V4.98Zm3.913 7.992a4.414 4.414 0 1 1 4.413 4.396 4.363 4.363 0 0 1-4.413-4.396Zm6.328 0a1.916 1.916 0 1 0-1.915 1.97 1.869 1.869 0 0 0 1.915-1.97Zm12.453-4.162v7.906c0 2.797-2.182 3.98-4.396 3.98a4.258 4.258 0 0 1-3.946-2.019l2.13-1.232a1.903 1.903 0 0 0 1.899 1.049 1.658 1.658 0 0 0 1.881-1.782v-.76a2.956 2.956 0 0 1-2.431 1.082 4.23 4.23 0 0 1 0-8.458 2.958 2.958 0 0 1 2.431 1.082v-.85l2.432.002Zm-2.43 3.996a2.019 2.019 0 1 0-2.015 1.934 1.883 1.883 0 0 0 2.014-1.934Zm3.844.166a4.413 4.413 0 1 1 4.413 4.396 4.363 4.363 0 0 1-4.413-4.396Zm6.328 0a1.916 1.916 0 1 0-1.915 1.97 1.868 1.868 0 0 0 1.915-1.97Zm3.662-6.393a1.5 1.5 0 1 1 1.5 1.499 1.514 1.514 0 0 1-1.5-1.499Zm.253 2.231h2.498v8.326h-2.502l.004-8.326Zm13.284 4.163a4.18 4.18 0 0 1-3.98 4.395 3.124 3.124 0 0 1-2.48-1.016v4.113h-2.497V8.811h2.498v.782a3.126 3.126 0 0 1 2.48-1.015 4.18 4.18 0 0 1 3.98 4.396Zm-2.497 0a1.981 1.981 0 1 0-1.98 2.03 1.899 1.899 0 0 0 1.98-2.03Zm10.205 1.664c0 1.915-1.664 2.73-3.462 2.73a3.646 3.646 0 0 1-3.58-1.98l2.163-1.233a1.369 1.369 0 0 0 1.413.983c.6 0 .9-.184.9-.516 0-.917-4.097-.433-4.097-3.313 0-1.816 1.532-2.731 3.264-2.731a3.64 3.64 0 0 1 3.246 1.781l-2.131 1.149a1.207 1.207 0 0 0-1.115-.733c-.433 0-.7.169-.7.466.003.95 4.1.317 4.1 3.397Zm9.124-5.827v8.326h-2.498v-.783a2.848 2.848 0 0 1-2.38 1.016c-1.682 0-3.111-1.198-3.111-3.448v-5.11h2.497v4.744a1.367 1.367 0 0 0 .374 1.093 1.373 1.373 0 0 0 1.075.421c.916 0 1.548-.532 1.548-1.715V8.814l2.495-.003Zm14.322 3.214v5.111h-2.498v-4.895c0-.833-.399-1.365-1.198-1.365-.833 0-1.299.583-1.299 1.565v4.695h-2.497v-4.895c0-.833-.4-1.365-1.2-1.365-.832 0-1.298.583-1.298 1.565v4.695h-2.498V8.81h2.498v.766a2.56 2.56 0 0 1 2.231-.999 2.482 2.482 0 0 1 2.181 1.099 2.737 2.737 0 0 1 2.414-1.099c1.912.001 3.164 1.366 3.164 3.448Z"/></g><defs><clipPath id="a"><path fill="#fff" d="M.115.786h110.733v22.427H.115z"/></clipPath></defs></svg>