<svg xmlns="http://www.w3.org/2000/svg" width="125" height="24" fill="none"><g fill="#C3C4C6" clip-path="url('#a')"><path d="M11.72 23.213c6.192 0 11.213-5.02 11.213-11.214V4.15A3.364 3.364 0 0 0 19.569.787h-7.29v4.92c0 1.122.07 2.285.658 3.24a5.605 5.605 0 0 0 3.87 2.594l.216.035a.448.448 0 0 1 0 .849l-.215.035a5.607 5.607 0 0 0-4.63 4.63l-.034.214a.448.448 0 0 1-.85 0l-.034-.215a5.606 5.606 0 0 0-2.594-3.87c-.956-.59-2.119-.658-3.241-.658H.519c.293 5.933 5.195 10.653 11.2 10.653Z"/><path d="M.506 11.439h4.92c1.122 0 2.284-.069 3.24-.657A5.616 5.616 0 0 0 10.5 8.946c.59-.955.658-2.118.658-3.24V.785h-7.29A3.364 3.364 0 0 0 .507 4.15v7.289Zm118.701-3.867c3.135 0 4.647 2.19 4.647 4.726v4.763h-3.28v-4.198c0-1.15-.42-2.098-1.622-2.098-1.203 0-1.604.949-1.604 2.098v4.197h-3.28v-4.197c0-1.15-.401-2.098-1.604-2.098s-1.622.948-1.622 2.098v4.197h-3.28v-4.763c0-2.536 1.512-4.725 4.647-4.725 1.713 0 2.952.675 3.517 1.788.601-1.113 1.914-1.789 3.481-1.789v.001Zm-17.54 6.57c1.057 0 1.512-.968 1.512-2.118V7.937h3.28v4.489c0 2.682-1.567 4.908-4.792 4.908-3.226 0-4.793-2.226-4.793-4.909V7.937h3.28v4.087c0 1.15.455 2.117 1.513 2.117Zm-9.617 3.21c-2.06 0-3.39-.711-4.174-2.098l2.37-1.332c.328.584.82.876 1.64.876.674 0 .984-.237.984-.53 0-1.113-4.812.019-4.812-3.52 0-1.716 1.458-3.103 3.937-3.103 2.169 0 3.353 1.058 3.882 2.08l-2.37 1.35c-.2-.547-.82-.875-1.44-.875-.473 0-.728.2-.728.474 0 1.131 4.811.091 4.811 3.522 0 1.915-1.877 3.156-4.1 3.156Zm-11.461 3.905h-3.28V12.48c0-2.792 2.095-4.817 5.011-4.817 2.843 0 5.012 2.172 5.012 4.818 0 2.919-1.932 4.853-4.83 4.853-.674 0-1.348-.2-1.913-.511v4.434Zm1.731-7.007c1.039 0 1.731-.802 1.731-1.752 0-.966-.692-1.751-1.731-1.751-1.039 0-1.731.785-1.731 1.752 0 .949.692 1.752 1.731 1.752Zm-8.298-7.28A1.985 1.985 0 0 1 72.054 5c0-1.077.893-1.971 1.968-1.971s1.969.894 1.969 1.97c0 1.077-.894 1.971-1.969 1.971Zm-1.64.967h3.28v9.124h-3.28V7.937Zm-6.294 9.397c-2.843 0-5.012-2.19-5.012-4.853 0-2.646 2.169-4.836 5.012-4.836s5.012 2.19 5.012 4.836c0 2.664-2.169 4.853-5.012 4.853Zm0-3.083c1.039 0 1.731-.803 1.731-1.753 0-.966-.692-1.77-1.731-1.77-1.039 0-1.731.804-1.731 1.77 0 .95.692 1.753 1.73 1.753Zm-11.206 7.28c-2.26 0-3.9-1.004-4.739-2.792l2.716-1.46c.291.62.838 1.26 1.968 1.26 1.185 0 1.968-.749 2.06-2.063-.438.384-1.13.675-2.169.675-2.534 0-4.575-1.952-4.575-4.689 0-2.645 2.17-4.799 5.012-4.799 2.916 0 5.012 2.026 5.012 4.818v3.613c0 3.284-2.278 5.437-5.285 5.437Zm.218-7.463c.984 0 1.732-.675 1.732-1.679 0-.985-.747-1.642-1.732-1.642-.966 0-1.731.657-1.731 1.643 0 1.003.765 1.678 1.731 1.678ZM44.58 17.334c-2.844 0-5.013-2.19-5.013-4.853 0-2.646 2.17-4.836 5.013-4.836 2.842 0 5.012 2.19 5.012 4.836 0 2.664-2.17 4.853-5.012 4.853Zm0-3.083c1.039 0 1.731-.803 1.731-1.753 0-.966-.692-1.77-1.731-1.77-1.04 0-1.732.804-1.732 1.77 0 .95.693 1.753 1.732 1.753ZM33.593 4.744v9.214h5.431v3.103h-5.887c-2.077 0-2.916-1.095-2.916-2.829V4.744h3.372Z"/></g><defs><clipPath id="a"><path fill="#fff" d="M.766.786h123.349v22.427H.766z"/></clipPath></defs></svg>