<svg xmlns="http://www.w3.org/2000/svg" width="103" height="26" fill="none"><g fill="#C3C4C6" clip-path="url('#a')"><path d="M28.442 8.353h2.571v10.413h-2.57V8.353Zm3.597 6.496c0-2.579 1.602-4.125 4.004-4.125 2.403 0 4.005 1.546 4.005 4.125s-1.546 4.141-4.005 4.141c-2.458 0-4.004-1.506-4.004-4.14Zm5.462 0c0-1.418-.552-2.25-1.433-2.25s-1.426.8-1.426 2.25.544 2.243 1.426 2.243c.88 0 1.45-.793 1.45-2.235l-.017-.008Zm3.573 4.453h2.483a1.33 1.33 0 0 0 1.393.802c.985 0 1.498-.53 1.498-1.314v-1.442h.008a2.46 2.46 0 0 1-2.403 1.402c-1.882 0-3.132-1.434-3.132-3.9s1.194-4.006 3.204-4.006a2.458 2.458 0 0 1 2.403 1.514h-.072v-1.45h2.547v7.802c0 1.882-1.666 3.06-4.117 3.06-2.227-.009-3.652-1.026-3.796-2.46l-.016-.008Zm5.382-4.453c0-1.257-.577-2.05-1.49-2.05s-1.474.8-1.474 2.05c0 1.25.553 1.987 1.474 1.987s1.49-.681 1.49-1.987Zm3.564 0c0-2.579 1.602-4.125 4.005-4.125 2.403 0 4.005 1.546 4.005 4.125s-1.554 4.141-4.005 4.141c-2.45 0-3.989-1.506-3.989-4.14h-.016Zm5.463 0c0-1.418-.56-2.25-1.434-2.25-.873 0-1.425.8-1.425 2.25s.544 2.243 1.425 2.243 1.45-.793 1.45-2.235l-.016-.008Zm3.588-5.839a1.313 1.313 0 1 1 1.314 1.258 1.269 1.269 0 0 1-1.298-1.25l-.016-.008Zm0 1.89h2.603v7.898h-2.563l-.04-7.898Zm11.967 3.95c0 2.57-1.154 4.06-3.116 4.06a2.459 2.459 0 0 1-2.403-1.466h-.048v3.893H62.9V10.925h2.555v1.41h.048a2.476 2.476 0 0 1 2.403-1.523c2.018-.016 3.18 1.466 3.18 4.045l-.048-.008Zm-2.62 0c0-1.25-.584-2.06-1.49-2.06-.904 0-1.473.802-1.481 2.06-.008 1.257.577 2.05 1.482 2.05s1.538-.745 1.538-2.043l-.049-.008Zm7.009-4.134c2.155 0 3.492 1.017 3.508 2.651h-2.347c0-.568-.472-.92-1.177-.92-.705 0-1.041.272-1.041.68s.296.537.889.657l1.65.336c1.602.337 2.242.978 2.242 2.17 0 1.603-1.481 2.692-3.684 2.692-2.203 0-3.636-1.057-3.74-2.667h2.49c.073.585.537.93 1.29.93s1.105-.241 1.105-.666c0-.424-.24-.496-.857-.625l-1.49-.312c-1.545-.328-2.354-1.137-2.354-2.347.048-1.57 1.393-2.57 3.564-2.57l-.048-.009Zm12.335 8.074H85.27v-1.482h-.048a2.257 2.257 0 0 1-2.299 1.642 2.746 2.746 0 0 1-2.827-2.971v-5.07h2.57v4.517c0 .929.49 1.434 1.29 1.434a1.315 1.315 0 0 0 1.29-1.506v-4.446h2.563l-.048 7.882Zm1.241-7.89h2.5v1.522h.055a2.29 2.29 0 0 1 2.251-1.666 2.049 2.049 0 0 1 2.195 1.674h.112a2.402 2.402 0 0 1 2.403-1.674 2.5 2.5 0 0 1 2.587 2.684v5.358h-2.587v-4.702c0-.8-.377-1.25-1.106-1.25a1.123 1.123 0 0 0-1.129 1.274v4.678h-2.45v-4.726c0-.8-.393-1.225-1.098-1.225a1.144 1.144 0 0 0-1.146 1.29v4.66h-2.57l-.017-7.897ZM23.356 9.035A7.913 7.913 0 0 0 9.61 3.685H-.385v21.097h21.106v-9.86a7.907 7.907 0 0 0 2.635-5.887Zm-4.06 0a3.861 3.861 0 1 1-7.723.016 3.861 3.861 0 0 1 7.722-.016ZM16.66 20.72H3.676V7.745h3.957a7.652 7.652 0 0 0-.12 1.29 7.93 7.93 0 0 0 7.921 7.921c.411-.002.82-.037 1.226-.104v3.869Z"/></g><defs><clipPath id="a"><path d="M0 .735h102.323v24.53H0z"/></clipPath></defs></svg>