<svg width="116" height="24" viewBox="0 0 116 24" fill="none" xmlns="http://www.w3.org/2000/svg">
<path d="M34.607 8.99228C34.5488 8.4755 34.3086 8.07517 33.8864 7.7913C33.4642 7.5038 32.9329 7.36004 32.2924 7.36004C31.8338 7.36004 31.4371 7.43283 31.1023 7.5784C30.7675 7.72034 30.5073 7.91686 30.3217 8.16797C30.1397 8.41545 30.0487 8.6975 30.0487 9.01412C30.0487 9.27979 30.1106 9.50906 30.2343 9.70195C30.3617 9.89483 30.5273 10.0568 30.7311 10.1878C30.9385 10.3152 31.1605 10.4225 31.3971 10.5099C31.6337 10.5936 31.8611 10.6627 32.0795 10.7173L33.1713 11.0012C33.5279 11.0885 33.8937 11.2068 34.2685 11.356C34.6434 11.5052 34.9909 11.7018 35.3112 11.9456C35.6315 12.1894 35.8898 12.4915 36.0864 12.8518C36.2865 13.2121 36.3866 13.6433 36.3866 14.1456C36.3866 14.7788 36.2228 15.3411 35.8953 15.8324C35.5714 16.3237 35.1001 16.7113 34.4814 16.9952C33.8664 17.279 33.1221 17.421 32.2487 17.421C31.4117 17.421 30.6874 17.2881 30.076 17.0225C29.4646 16.7568 28.986 16.3801 28.6403 15.8924C28.2946 15.4011 28.1035 14.8188 28.0671 14.1456H29.7594C29.7922 14.5495 29.9232 14.8862 30.1524 15.1555C30.3854 15.4211 30.682 15.6195 31.0423 15.7505C31.4062 15.8779 31.8047 15.9416 32.2378 15.9416C32.7145 15.9416 33.1385 15.867 33.5097 15.7178C33.8846 15.5649 34.1794 15.3538 34.3941 15.0845C34.6088 14.8116 34.7162 14.4931 34.7162 14.1292C34.7162 13.798 34.6215 13.5269 34.4323 13.3158C34.2467 13.1047 33.9938 12.93 33.6735 12.7917C33.3569 12.6534 32.9984 12.5315 32.5981 12.426L31.277 12.0657C30.3817 11.8219 29.6721 11.4634 29.148 10.9903C28.6276 10.5172 28.3674 9.89119 28.3674 9.11238C28.3674 8.46822 28.542 7.90594 28.8914 7.42555C29.2408 6.94516 29.7139 6.57213 30.3108 6.30646C30.9076 6.03715 31.5809 5.90249 32.3306 5.90249C33.0876 5.90249 33.7554 6.03533 34.334 6.301C34.9163 6.56667 35.3749 6.93242 35.7097 7.39826C36.0445 7.86045 36.2192 8.39179 36.2338 8.99228H34.607ZM38.4023 17.2354V6.05535H40.0892V11.3942H40.2256L44.9149 6.05535H47.0385L42.5293 11.0885L47.0548 17.2354H45.0241L41.4102 12.2404L40.0892 13.758V17.2354H38.4023ZM47.7481 6.05535H49.6642L52.5848 11.1377H52.7049L55.6254 6.05535H57.5416L53.4855 12.8463V17.2354H51.8042V12.8463L47.7481 6.05535ZM61.3233 17.2354L58.2226 6.05535H59.9967L62.1749 14.7133H62.2786L64.5441 6.05535H66.3019L68.5673 14.7188H68.6711L70.8437 6.05535H72.6234L69.5172 17.2354H67.8195L65.4666 8.86127H65.3793L63.0265 17.2354H61.3233ZM83.3175 11.6453C83.3175 12.839 83.0992 13.8653 82.6624 14.7242C82.2257 15.5795 81.6271 16.2382 80.8664 16.7004C80.1095 17.1589 79.2488 17.3882 78.2843 17.3882C77.3163 17.3882 76.4519 17.1589 75.6913 16.7004C74.9343 16.2382 74.3375 15.5776 73.9008 14.7188C73.4641 13.8599 73.2457 12.8354 73.2457 11.6453C73.2457 10.4517 73.4641 9.42718 73.9008 8.57194C74.3375 7.71306 74.9343 7.05434 75.6913 6.59579C76.4519 6.13359 77.3163 5.90249 78.2843 5.90249C79.2488 5.90249 80.1095 6.13359 80.8664 6.59579C81.6271 7.05434 82.2257 7.71306 82.6624 8.57194C83.0992 9.42718 83.3175 10.4517 83.3175 11.6453ZM81.6471 11.6453C81.6471 10.7355 81.4997 9.96944 81.2049 9.34711C80.9137 8.72115 80.5134 8.24804 80.0039 7.92778C79.4981 7.60388 78.9249 7.44193 78.2843 7.44193C77.6402 7.44193 77.0652 7.60388 76.5593 7.92778C76.0534 8.24804 75.6531 8.72115 75.3583 9.34711C75.0672 9.96944 74.9216 10.7355 74.9216 11.6453C74.9216 12.5552 75.0672 13.3231 75.3583 13.949C75.6531 14.5714 76.0534 15.0445 76.5593 15.3684C77.0652 15.6886 77.6402 15.8488 78.2843 15.8488C78.9249 15.8488 79.4981 15.6886 80.0039 15.3684C80.5134 15.0445 80.9137 14.5714 81.2049 13.949C81.4997 13.3231 81.6471 12.5552 81.6471 11.6453ZM85.4206 17.2354V6.05535H89.4057C90.2718 6.05535 90.9906 6.20456 91.562 6.50298C92.137 6.80141 92.5664 7.21447 92.8503 7.74217C93.1341 8.26624 93.2761 8.87218 93.2761 9.56002C93.2761 10.2442 93.1323 10.8465 92.8448 11.3669C92.561 11.8837 92.1315 12.2859 91.5565 12.5734C90.9851 12.8609 90.2664 13.0046 89.4002 13.0046H86.3814V11.5525H89.2473C89.7932 11.5525 90.2372 11.4743 90.5793 11.3178C90.9251 11.1613 91.178 10.9339 91.3381 10.6354C91.4983 10.337 91.5783 9.97854 91.5783 9.56002C91.5783 9.13785 91.4965 8.7721 91.3327 8.46276C91.1726 8.15342 90.9196 7.91686 90.5739 7.75309C90.2318 7.58568 89.7823 7.50198 89.2255 7.50198H87.1074V17.2354H85.4206ZM90.9396 12.1912L93.7019 17.2354H91.7803L89.0727 12.1912H90.9396ZM94.7773 7.50744V6.05535H103.43V7.50744H99.9415V17.2354H98.2601V7.50744H94.7773ZM105.342 17.2354V6.05535H107.029V10.9138H112.602V6.05535H114.295V17.2354H112.602V12.3605H107.029V17.2354H105.342Z" fill="#DFFEA1"/>
<g clip-path="url(#clip0_310_1041)">
<path d="M11.5294 5.75367C10.1074 4.33171 10.1074 2.02584 11.5294 0.603882C12.9513 2.02584 12.9513 4.33171 11.5294 5.75367Z" fill="#DFFEA1"/>
<path d="M7.13989 7.58899C5.1288 7.58899 3.49841 5.9586 3.49841 3.94751C5.5095 3.94751 7.13989 5.5779 7.13989 7.58899Z" fill="#DFFEA1"/>
<path d="M15.8956 7.58899C17.9067 7.58899 19.5371 5.9586 19.5371 3.94751C17.526 3.94751 15.8956 5.5779 15.8956 7.58899Z" fill="#DFFEA1"/>
<path d="M19.5818 20.0525C17.5707 20.0525 15.9403 18.4221 15.9403 16.411C17.9514 16.411 19.5818 18.0414 19.5818 20.0525Z" fill="#DFFEA1"/>
<path d="M3.48779 20.0416C5.49888 20.0416 7.12927 18.4112 7.12927 16.4001C5.11818 16.4001 3.48779 18.0305 3.48779 20.0416Z" fill="#DFFEA1"/>
<path d="M17.7869 12.0001C19.2089 10.5781 21.5148 10.5781 22.9367 12.0001C21.5148 13.422 19.2089 13.422 17.7869 12.0001Z" fill="#DFFEA1"/>
<path d="M0.121704 12.0001C1.54366 10.5781 3.84954 10.5781 5.27149 12.0001C3.84954 13.422 1.54366 13.422 0.121704 12.0001Z" fill="#DFFEA1"/>
<path d="M11.5293 14.4058C12.858 14.4058 13.9351 13.3287 13.9351 12C13.9351 10.6714 12.858 9.59424 11.5293 9.59424C10.2006 9.59424 9.12354 10.6714 9.12354 12C9.12354 13.3287 10.2006 14.4058 11.5293 14.4058Z" fill="#DFFEA1"/>
<path d="M11.5294 16.17C13.8324 16.17 15.6994 14.303 15.6994 12C15.6994 9.69694 13.8324 7.82996 11.5294 7.82996C9.22636 7.82996 7.35938 9.69694 7.35938 12C7.35938 14.303 9.22636 16.17 11.5294 16.17Z" fill="#DFFEA1"/>
<path d="M14.1133 20.0869H8.94495V22.2201H14.1133V20.0869Z" fill="#DFFEA1"/>
</g>
<defs>
<clipPath id="clip0_310_1041">
<rect width="23.0588" height="23.0588" fill="white" transform="translate(0 0.470581)"/>
</clipPath>
</defs>
</svg>
