<svg xmlns="http://www.w3.org/2000/svg" width="125" height="24" fill="none">
  <g fill="#C3C4C6" clip-path="url(#a)">
    <path d="M11.7191 23.2129c6.1932 0 11.2135-5.0203 11.2135-11.2135V4.14994c0-.8922-.3544-1.74786-.9853-2.37874-.6309-.63089-1.4865-.985311-2.3787-.985311h-7.2888V5.70526c0 1.12247.0684 2.28531.6571 3.2407.4214.6847.9852 1.27074 1.6531 1.71834s1.4243.7464 2.2178.8759l.2147.0348c.0886.0302.1654.0874.2198.1635.0544.0761.0837.1673.0837.2609 0 .0936-.0293.1848-.0837.2609-.0544.0761-.1312.1333-.2198.1635l-.2147.0348c-1.1594.1894-2.23.7382-3.0607 1.5688-.8306.8307-1.3794 1.9013-1.5688 3.0607l-.0348.2147c-.0302.0886-.0874.1654-.1635.2198-.0761.0544-.1673.0837-.2609.0837-.0936 0-.1848-.0293-.2609-.0837-.0761-.0544-.1333-.1312-.1635-.2198l-.0348-.2147c-.1296-.7935-.4283-1.5499-.8759-2.2177-.44764-.6679-1.03366-1.2317-1.71834-1.6532-.95539-.5887-2.11823-.6571-3.24071-.6571H.519043C.812276 18.4926 5.71426 23.2129 11.7191 23.2129Z"/>
    <path d="M.505707 11.4387H5.42507c1.12248 0 2.28532-.0684 3.24071-.6571.74683-.4601 1.37552-1.08881 1.83562-1.83564.5887-.95539.6571-2.11823.6571-3.2407V.785889H3.86976c-.8922 0-1.74786.354421-2.37874.985311-.630887.63088-.985313 1.48654-.985313 2.37874v7.28876ZM119.207 7.57231c3.135 0 4.647 2.18943 4.647 4.72539v4.7629h-3.28v-4.1978c0-1.1493-.42-2.098-1.622-2.098-1.203 0-1.604.9487-1.604 2.098v4.1973h-3.28v-4.1973c0-1.1493-.401-2.098-1.604-2.098s-1.622.9487-1.622 2.098v4.1973h-3.28v-4.763c0-2.53592 1.512-4.72536 4.647-4.72536 1.713 0 2.952.67506 3.517 1.788.601-1.11294 1.914-1.78856 3.481-1.78856v.00113Zm-17.54 6.56889c1.057 0 1.512-.9672 1.512-2.1171V7.93674h3.28v4.48876c0 2.6823-1.567 4.9087-4.792 4.9087-3.2264 0-4.7935-2.2259-4.7935-4.9087V7.93674h3.2805v4.08736c0 1.1494.455 2.1171 1.513 2.1171Zm-9.617 3.211c-2.0594 0-3.3899-.7115-4.1737-2.0981l2.3695-1.3321c.3279.5836.8197.8757 1.6399.8757.6745 0 .984-.2371.984-.5292 0-1.113-4.8112.0185-4.8112-3.5211 0-1.71566 1.4578-3.10221 3.9366-3.10221 2.1686 0 3.3533 1.058 3.8821 2.08011l-2.3694 1.3501c-.2002-.5472-.8203-.8758-1.4399-.8758-.4737 0-.7288.2008-.7288.4744 0 1.1314 4.8111.0914 4.8111 3.5216 0 1.9158-1.8771 3.1566-4.1002 3.1566Zm-11.4613 3.9051h-3.2805v-8.7768c0-2.79221 2.0958-4.81736 5.0118-4.81736 2.8432 0 5.0119 2.17149 5.0119 4.81736 0 2.9194-1.9321 4.8537-4.8296 4.8537-.6745 0-1.3485-.2007-1.9136-.5113v4.4344Zm1.7313-7.0068c1.039 0 1.7314-.8029 1.7314-1.7521 0-.9666-.6924-1.7515-1.7314-1.7515-1.0389 0-1.7313.7849-1.7313 1.7521 0 .9486.6924 1.7515 1.7313 1.7515Zm-8.298-7.28036c-1.0753 0-1.9679-.89428-1.9679-1.97077 0-1.0765.8926-1.97078 1.9679-1.97078 1.0754 0 1.9686.89428 1.9686 1.97078 0 1.07649-.8932 1.97077-1.9686 1.97077Zm-1.6399.9666h3.2805v9.12386h-3.2805V7.93674Zm-6.2942 9.39746c-2.8432 0-5.0119-2.1894-5.0119-4.8537 0-2.64587 2.1687-4.83531 5.0119-4.83531s5.0119 2.18944 5.0119 4.83531c0 2.6643-2.1687 4.8537-5.0119 4.8537Zm0-3.0837c1.039 0 1.7314-.8029 1.7314-1.7521 0-.9666-.6924-1.7695-1.7314-1.7695-1.0389 0-1.7313.8029-1.7313 1.7695 0 .9492.6924 1.7521 1.7313 1.7521Zm-11.2062 7.2804c-2.2595 0-3.9001-1.0036-4.7383-2.7922l2.7154-1.4594c.2915.6206.8382 1.2593 1.968 1.2593 1.1852 0 1.9685-.7485 2.0599-2.0622-.4374.3835-1.1303.675-2.1687.675-2.5337 0-4.5751-1.9522-4.5751-4.6894 0-2.64531 2.1692-4.79886 5.0124-4.79886 2.9161 0 5.0119 2.02572 5.0119 4.81736v3.613c0 3.2844-2.2786 5.4374-5.2855 5.4374Zm.2187-7.4626c.9839 0 1.7313-.6756 1.7313-1.6792 0-.9851-.7468-1.6422-1.7313-1.6422-.9661 0-1.7314.6571-1.7314 1.6427 0 1.0036.7653 1.6787 1.7314 1.6787Zm-10.5217 3.2659c-2.8432 0-5.0124-2.1894-5.0124-4.8537 0-2.64587 2.1692-4.83531 5.0124-4.83531 2.8426 0 5.0119 2.18944 5.0119 4.83531 0 2.6643-2.1687 4.8537-5.0119 4.8537Zm0-3.0837c1.039 0 1.7314-.8029 1.7314-1.7521 0-.9666-.6924-1.7695-1.7314-1.7695-1.0389 0-1.7313.8029-1.7313 1.7695 0 .9492.6924 1.7521 1.7313 1.7521ZM33.5928 4.74426v9.21414h5.4313v3.1022H33.137c-2.0773 0-2.9155-1.095-2.9155-2.8286V4.74426h3.3713Z"/>
  </g>
  <defs>
    <clipPath id="a">
      <path fill="#fff" d="M.765991.786499h123.349v22.427H.765991z"/>
    </clipPath>
  </defs>
</svg>
