<svg xmlns="http://www.w3.org/2000/svg" width="103" height="26" fill="none">
  <g fill="#C3C4C6" clip-path="url(#a)">
    <path d="M28.4424 8.35335h2.5711V18.7659h-2.5711V8.35335Zm3.5963 6.49585c0-2.5791 1.6019-4.125 4.0048-4.125 2.4029 0 4.0049 1.5459 4.0049 4.125s-1.5459 4.141-4.0049 4.141c-2.4589 0-4.0048-1.5058-4.0048-4.141Zm5.4626 0c0-1.4177-.5527-2.2507-1.4337-2.2507-.8811 0-1.4257.8009-1.4257 2.2507 0 1.4497.5446 2.2427 1.4257 2.2427.881 0 1.4497-.793 1.4497-2.2347l-.016-.008Zm3.5723 4.4533h2.483c.113.2673.3104.4904.5621.635.2517.1446.5437.2029.8316.166.9852 0 1.4978-.5286 1.4978-1.3136v-1.4417h.008c-.2122.4489-.5553.8231-.9842 1.0733-.4289.2502-.9235.3647-1.4187.3284-1.8823 0-3.1318-1.4337-3.1318-3.9007s1.1935-4.0048 3.2039-4.0048c.5079-.0272 1.0118.1038 1.442.3749.4304.2711.7661.669.9609 1.1389h-.0721v-1.4498h2.5471v7.8014c0 1.8823-1.6661 3.0597-4.117 3.0597-2.2267-.008-3.6524-1.0252-3.7966-2.4589l-.016-.0081Zm5.3825-4.4533c0-1.2575-.5767-2.0505-1.4898-2.0505s-1.4738.801-1.4738 2.0505c0 1.2495.5527 1.9864 1.4738 1.9864s1.4898-.6808 1.4898-1.9864Zm3.5643 0c0-2.5791 1.6019-4.125 4.0048-4.125 2.4029 0 4.0048 1.5459 4.0048 4.125s-1.5538 4.141-4.0048 4.141c-2.451 0-3.9888-1.5058-3.9888-4.141h-.016Zm5.4626 0c0-1.4177-.5607-2.2507-1.4338-2.2507-.873 0-1.4257.8009-1.4257 2.2507 0 1.4497.5447 2.2427 1.4257 2.2427.8811 0 1.4498-.793 1.4498-2.2347l-.016-.008Zm3.5883-5.83906c-.0112-.26191.0562-.52118.1936-.74441.1373-.22331.3384-.40032.5772-.50837.2389-.10814.5046-.14226.763-.09804.2583.04413.4976.1646.6869.34585.1894.18134.3202.41506.3756.67129.0554.25623.0329.52319-.0647.76645-.0976.24333-.2657.4519-.4827.59889-.2171.147-.4732.2256-.7353.2259-.1675.0042-.3343-.0249-.4905-.0855-.1562-.0607-.2988-.1519-.4195-.26809-.1207-.11622-.2171-.25526-.2836-.40913-.0666-.15378-.1019-.31926-.104-.48683l-.016-.00801Zm0 1.89026h2.6031v7.8975h-2.5631l-.04-7.8975Zm11.9664 3.9488c0 2.5711-1.1534 4.0609-3.1158 4.0609-.5023.031-1.0021-.093-1.4318-.3551-.4298-.2622-.7686-.6498-.971-1.1107h-.0481v3.8927h-2.5711V10.9245h2.5551v1.4096h.048c.1955-.4699.5311-.8682.961-1.1405.4301-.2724.9336-.4055 1.4419-.3813 2.0185-.016 3.1799 1.4658 3.1799 4.0449l-.0481-.008Zm-2.6192 0c0-1.2495-.5847-2.0585-1.4898-2.0585-.905 0-1.4737.801-1.4817 2.0585-.008 1.2575.5767 2.0505 1.4817 2.0505.9051 0 1.5379-.7449 1.5379-2.0425l-.0481-.008Zm7.0085-4.133c2.1546 0 3.4922 1.0172 3.5082 2.6512h-2.3468c0-.5687-.4726-.9211-1.1774-.9211-.7049 0-1.0413.2723-1.0413.6808s.2964.5367.8891.6568l1.65.3364c1.6019.3364 2.2427.9772 2.2427 2.1706 0 1.6019-1.4818 2.6913-3.6845 2.6913-2.2026 0-3.6363-1.0573-3.7405-2.6673h2.491c.0721.5848.5367.9292 1.2896.9292.7529 0 1.1053-.2403 1.1053-.6648 0-.4245-.2403-.4966-.857-.6248l-1.4898-.3124c-1.5459-.3284-2.3548-1.1373-2.3548-2.3468.048-1.5699 1.3936-2.5711 3.5642-2.5711l-.048-.008Zm12.3348 8.0737h-2.491v-1.4818h-.048c-.1394.4943-.4429.9263-.861 1.2247-.4182.2985-.9252.4457-1.4378.4173-.3868.0126-.7729-.0568-1.1309-.2037-.3581-.1468-.6817-.3678-.9484-.6483-.2675-.2807-.4718-.6146-.6007-.9799-.129-.3652-.1794-.7537-.1474-1.1397v-5.0701h2.5711v4.5175c0 .9291.4886 1.4337 1.2896 1.4337.1882-.0014.3732-.0432.5438-.1223.1706-.0792.322-.1941.4438-.3368.1225-.1427.213-.3101.2651-.4906.0512-.1806.064-.3702.0368-.5561v-4.4454h2.5631l-.0481 7.8815Zm1.2415-7.8895h2.499v1.5219h.0561c.1378-.4876.4341-.9155.841-1.217.4077-.3014.9035-.4594 1.4097-.4491.5086-.0442 1.0157.1029 1.4209.4125.4061.3095.6817.7594.7738 1.2616h.1121c.1602-.5049.4822-.9427.9171-1.2454.4341-.3027.9572-.4534 1.4858-.4287.3516-.0133.7025.0477 1.0284.1791.3268.1314.6218.3303.8658.5836s.432.5553.551.8863c.12.331.168.6834.142 1.0343v5.3584h-2.5872v-4.7016c0-.801-.3764-1.2495-1.1053-1.2495-.1618-.0027-.322.0297-.4702.0947-.1482.0651-.2795.1615-.3869.2824-.1073.1211-.1874.2637-.2346.4185-.0465.1547-.0593.3177-.0377.4779v4.6776h-2.4509v-4.7257c0-.8009-.3925-1.2254-1.0974-1.2254-.1634-.0013-.3251.0323-.4741.0986-.1498.0664-.2828.1639-.3917.2861-.1081.1221-.189.2661-.2371.4221-.0488.1561-.0633.3207-.0424.4827v4.6616h-2.5711l-.0161-7.8975ZM23.3559 9.03464c.0001-1.59416-.4813-3.15118-1.3811-4.46712-.8998-1.31594-2.1761-2.32944-3.6617-2.90774-1.4855-.5783-3.1111-.694441-4.6638-.33321-1.5528.36122-2.9601 1.18298-4.03792 2.35763H-.384644v21.0974H20.7208v-9.8599c.8283-.7409 1.4912-1.6481 1.9453-2.6625.454-1.0145.6891-2.1131.6898-3.22456Zm-4.0608 0c.0016.76388-.2235 1.51106-.6467 2.14706-.4234.6359-1.0257 1.132-1.731 1.4254-.7053.2935-1.4818.3711-2.2313.223-.7493-.148-1.438-.5151-1.9787-1.0547-.5408-.5396-.9092-1.2275-1.0588-1.97663-.1497-.74907-.0736-1.52576.2183-2.23165.292-.70593.7868-1.30935 1.4218-1.73392.6351-.42456 1.3818-.65119 2.1457-.6512 1.0225 0 2.0033.40565 2.727 1.12793.7239.72228 1.1316 1.7022 1.1337 2.72471ZM16.6599 20.7207H3.67625V7.74509H7.633c-.07641.42571-.11662.85711-.12014 1.28955.00216 2.10026.8374 4.11396 2.32255 5.59906 1.48509 1.4851 3.49869 2.3204 5.59899 2.3225.4107-.0022.8204-.037 1.2255-.1041v3.8686Z"/>
  </g>
  <defs>
    <clipPath id="a">
      <path  d="M0 .735229h102.323v24.5296H0z"/>
    </clipPath>
  </defs>
</svg>
