<svg xmlns="http://www.w3.org/2000/svg" width="67" height="16" fill="none">
  <g fill="#C3C4C6" clip-path="url(#a)">
    <path d="M1.32922 11.6506V3.88354l4.05536 2.15752v3.47356L8.6289 11.2622l3.2443-1.74758V6.04106l4.0554-2.15752v7.76706l-7.2997 3.8835-7.29968-3.8835Z"/>
    <path fill-rule="evenodd" d="M3.35691 4.96228 1.32922 3.88351 8.6289 0l7.2997 3.88351-2.0277 1.07877v5.71742l-5.272 2.9126-5.27199-2.9126V4.96228Zm10.32429.11687-1.808.96187v-.02157l-3.2443-1.7476-3.24432 1.7476v.02157l-1.80801-.96187v5.48105l5.05233 2.7913 5.0523-2.7913V5.07915Z" clip-rule="evenodd"/>
    <path d="M19.8151 11.0365V4.51221h1.2847v5.40582h3.1146v1.11847h-4.3993Zm7.1732.1305c-.4801 0-.9116-.0932-1.2944-.2796-.3829-.1865-.6846-.4567-.9052-.8109-.2206-.35417-.3309-.77981-.3309-1.27689v-.14916c0-.49708.1103-.92272.3309-1.27689.2206-.35416.5223-.62445.9052-.81085.3828-.18645.8143-.27963 1.2944-.27963.4802 0 .9117.09318 1.2945.27963.3828.1864.6846.45669.9051.81085.2206.35417.331.77981.331 1.27689v.14916c0 .49708-.1104.92272-.331 1.27689-.2205.3542-.5223.6244-.9051.8109-.3828.1864-.8143.2796-1.2945.2796Zm0-1.0439c.3764 0 .6878-.1149.9344-.34487.2466-.2361.3698-.57166.3698-1.00661v-.09318c0-.43494-.1232-.76741-.3698-.9973-.2401-.2361-.5516-.35417-.9344-.35417-.3763 0-.6878.11807-.9343.35417-.2466.22989-.3699.56236-.3699.9973v.09318c0 .43495.1233.77051.3699 1.00661.2465.22997.558.34487.9343.34487Zm2.9909-1.37942v-.14912c0-.48468.1005-.89788.3017-1.23964.2011-.34796.4672-.61205.7981-.79221.3374-.18645.704-.27963 1.0998-.27963.4412 0 .7754.07458 1.0025.2237.2271.14911.3926.30447.4964.46603h.1752v-.55926h1.2068v5.44315c0 .3169-.0973.5685-.292.755-.1946.1926-.4542.2889-.7786.2889h-3.2313v-1.0252h2.8031c.1816 0 .2725-.0933.2725-.2797v-1.2023h-.1752c-.0649.0994-.1557.2019-.2725.3075-.1168.0995-.2725.1834-.4672.2517-.1946.0684-.4412.1026-.7397.1026-.3958 0-.7624-.0902-1.0998-.2704-.3309-.1864-.597-.4505-.7981-.79218-.2012-.34797-.3017-.76427-.3017-1.24894Zm2.55 1.28622c.3763 0 .691-.11496.9441-.34486.253-.22989.3796-.55301.3796-.96931v-.09322c0-.42255-.1266-.74562-.3796-.96932-.2466-.22989-.5613-.34486-.9441-.34486-.3764 0-.6911.11497-.9441.34486-.253.2237-.3796.54677-.3796.96932v.09322c0 .4163.1266.73942.3796.96931.253.2299.5677.34486.9441.34486Zm5.7492 1.1371c-.4802 0-.9117-.0932-1.2945-.2796-.3828-.1865-.6845-.4567-.9051-.8109-.2206-.35417-.3309-.77981-.3309-1.27689v-.14916c0-.49708.1103-.92272.3309-1.27689.2206-.35416.5223-.62445.9051-.81085.3828-.18645.8143-.27963 1.2945-.27963.4801 0 .9116.09318 1.2945.27963.3828.1864.6845.45669.9051.81085.2206.35417.3309.77981.3309 1.27689v.14916c0 .49708-.1103.92272-.3309 1.27689-.2206.3542-.5223.6244-.9051.8109-.3829.1864-.8144.2796-1.2945.2796Zm0-1.0439c.3763 0 .6878-.1149.9343-.34487.2466-.2361.3699-.57166.3699-1.00661v-.09318c0-.43494-.1233-.76741-.3699-.9973-.24-.2361-.5515-.35417-.9343-.35417-.3764 0-.6878.11807-.9344.35417-.2465.22989-.3698.56236-.3698.9973v.09318c0 .43495.1233.77051.3698 1.00661.2466.22997.558.34487.9344.34487Zm3.2244.9134V6.41357h1.2264v4.62293h-1.2264Zm.6132-5.1635c-.2206 0-.4088-.06834-.5645-.20505-.1493-.13672-.2239-.31692-.2239-.54057 0-.2237.0746-.4039.2239-.54062.1557-.13667.3439-.20505.5645-.20505.2271 0 .4153.06838.5645.20505.1492.13672.2238.31692.2238.54062 0 .22365-.0746.40385-.2238.54057-.1492.13671-.3374.20505-.5645.20505Zm1.5343 7.0276V6.41355h1.207v.55926h.1752c.1101-.18021.2819-.33866.5159-.47538.2336-.14291.5677-.21435 1.0024-.21435.3894 0 .7495.09318 1.0802.27963.3311.18016.597.44735.7982.80155.2011.35417.3017.78291.3017 1.28619v.14916c0 .50328-.1006.93203-.3017 1.28619-.2012.3542-.4671.6245-.7982.8109-.3307.1802-.6908.2703-1.0802.2703-.2922 0-.5387-.0342-.7399-.1025-.1947-.0622-.3536-.143-.4766-.2424-.117-.1056-.2111-.2112-.2823-.3169h-.1753v2.3954h-1.2264Zm2.5306-2.7589c.3829 0 .6976-.1149.9441-.34483.253-.2361.3795-.57786.3795-1.02525v-.09318c0-.44739-.1265-.78605-.3795-1.01595-.253-.23609-.5677-.35416-.9441-.35416-.3765 0-.6912.11807-.9442.35416-.2529.2299-.3794.56856-.3794 1.01595v.09318c0 .44739.1265.78915.3794 1.02525.253.22993.5677.34483.9442.34483Zm5.2429 1.0253c-.6294 0-1.1453-.1305-1.5477-.3915-.4019-.261-.6454-.6338-.73-1.11844l1.1293-.27959c.0454.21745.1201.38835.2237.51262.1105.12431.2434.21431.3993.27031.1619.0497.3371.0746.5254.0746.2853 0 .4964-.0467.6328-.1399.136-.09938.2042-.22055.2042-.36347 0-.14291-.0647-.25164-.1947-.32621-.1295-.08078-.3371-.14602-.6229-.19571l-.2724-.04663c-.3376-.06214-.6458-.14602-.9247-.25164-.2789-.11183-.5029-.26409-.6717-.45669-.1684-.19265-.253-.44119-.253-.74567 0-.45979.1753-.81085.5258-1.05319.3501-.24854.8112-.37281 1.3819-.37281.5387 0 .9864.11497 1.343.34487.357.22989.5906.53126.7011.90407l-1.1388.33552c-.0519-.23609-.1589-.40389-.3212-.50328-.1559-.09942-.3506-.14915-.5841-.14915-.2336 0-.4119.04039-.5353.12117-.1231.07457-.1848.1802-.1848.31691 0 .14912.0648.26094.1947.33552.1295.06834.3048.12117.5254.15846l.2724.04659c.3635.06214.6911.14602.9834.25164.2983.09943.5318.24544.7006.43809.1753.18641.2629.44115.2629.76426 0 .48465-.1852.86055-.5551 1.12775-.3631.261-.8531.3915-1.4695.3915Zm4.5006-.0558c-.3761 0-.7072-.0808-.9925-.2423-.2789-.1678-.4965-.3977-.6523-.6897-.1554-.29206-.2336-.62762-.2336-1.00664V6.4137h1.2265v2.66564c0 .34797.0876.60895.2629.78291.1813.17405.4377.26095.7688.26095.3761 0 .6683-.118.876-.35413.2076-.24234.3112-.57786.3112-1.0066V6.4137h1.2265v4.623h-1.2071v-.6059h-.1748c-.0781.1554-.224.3076-.4382.4567-.2141.1492-.5387.2237-.9734.2237Zm3.7202-.0745V6.41377h1.2066v.50332h.1753c.0841-.15536.224-.28893.4183-.40079.1947-.11803.4511-.17707.7693-.17707.3436 0 .6195.06524.8271.19571.2077.12427.3665.28893.477.49398h.1749c.1105-.19881.2663-.36347.4675-.49398.2012-.13047.4865-.19571.8565-.19571.2983 0 .5677.06214.8077.18641.2465.11803.4412.30133.5841.54991.1489.2423.2236.54987.2236.92273v3.03842h-1.2264V8.08216c0-.25479-.0678-.44429-.2042-.56856-.1364-.13047-.3277-.19575-.5742-.19575-.2789 0-.4964.08702-.6523.26098-.1489.16776-.2236.4101-.2236.72702v2.73085h-1.2265V8.08216c0-.25479-.0682-.44429-.2042-.56856-.1364-.13047-.3276-.19575-.5746-.19575-.2788 0-.496.08702-.6518.26098-.1494.16776-.2241.4101-.2241.72702v2.73085h-1.226Z"/>
  </g>
  <defs>
    <clipPath id="a">
      <path fill="#fff" d="M.949829 0h66.0502v15.7094H.949829z"/>
    </clipPath>
  </defs>
</svg>
