<svg xmlns="http://www.w3.org/2000/svg" width="111" height="24" fill="none">
  <g fill="#C3C4C6" clip-path="url(#a)">
    <path d="M17.5763 10.6288c-.3188.3206-.5628.7077-.7149 1.1334-.152.4258-.2083.8799-.1648 1.3299l-.0152-.0151c.0448.5297-.0267 1.0627-.2093 1.5621-.1826.4992-.4719.9526-.8477 1.3285-.376.3759-.8293.6652-1.3287.8477-.4992.1826-1.0323.2541-1.562.2094l.0152.0151c-.6336-.0589-1.27.0789-1.8225.3949-.5524.3159-.99392.7946-1.2643 1.3707-.27039.576-.35659 1.2214-.24676 1.8483.10993.6268.41042 1.2045.86066 1.6543.4501.4498 1.0281.7498 1.655.859.627.1093 1.2723.0226 1.8481-.2483.5759-.271 1.0541-.7129 1.3695-1.2656.3155-.5527.4528-1.1892.3933-1.8228l.016.0151c-.0448-.5296.0266-1.0628.2092-1.5621.1826-.4992.472-.9526.8478-1.3285.376-.3759.8293-.6653 1.3286-.8478.4993-.1825 1.0323-.254 1.5621-.2093l-.016-.0151c.5176.0465 1.0386-.0384 1.5147-.2468.476-.2084.8918-.5336 1.2087-.9454.3169-.4119.5248-.8971.6041-1.4107.0795-.5136.028-1.0389-.1496-1.5273-.1776-.4884-.4756-.9241-.8665-1.2666-.3908-.3425-.8618-.58089-1.3692-.69291-.5075-.11203-1.0351-.0942-1.5338.05189-.4987.14616-.9524.41582-1.3192.78402h-.0025Zm-6.205 4.429-.016-.0151c.4502.0453.9048-.0099 1.3311-.1618.4263-.1519.8135-.3966 1.1336-.7164.32-.3198.565-.7069.7172-1.133.1522-.4262.2078-.8807.1628-1.331l.016.0151c-.0448-.5297.0267-1.0628.2092-1.5621.1826-.49919.472-.95258.8478-1.32851.376-.37585.8294-.66525 1.3286-.84775.4993-.18261 1.0323-.25404 1.5621-.20932l-.016-.01514c.6337.05954 1.2703-.07791 1.823-.39351.5528-.3156.9947-.79403 1.2655-1.37001.2708-.57598.3573-1.22148.2478-1.84847-.1095-.62698-.4097-1.20491-.8598-1.65497-.4501-.45005-1.028-.75032-1.655-.85984-.627-.10953-1.2724-.02298-1.8484.24785-.5761.27081-1.0544.71272-1.3701 1.26544-.3156.55272-.453 1.18934-.3935 1.82303l-.0151-.01598c.0448.52974-.0265 1.06289-.209 1.56222-.1825.49933-.4719.95279-.8477 1.32876-.376.37585-.8294.66524-1.3288.84774-.4994.1825-1.0325.25382-1.5622.20899l.0151.01598c-.4502-.04533-.9049.00993-1.3311.16181-.4263.15181-.81347.39654-1.13356.71638-.32009.3198-.56508.7069-.7173 1.133-.15214.4262-.20773.8807-.16274 1.331l-.01513-.0151c.04457.5296-.027 1.0627-.20958 1.5619-.18267.4991-.47198.9525-.84783 1.3284-.37588.3758-.82922.6651-1.32841.8478-.4992.1826-1.03222.2542-1.5619.2096l.01514.0151c-.63369-.0595-1.27031.0779-1.82303.3935-.55272.3157-.99463.794-1.26544 1.37-.27083.576-.35738 1.2215-.24786 1.8485.10953.627.4098 1.2049.85985 1.6549.45006.4502 1.02799.7504 1.65498.8599.62698.1095 1.27248.023 1.84847-.2478.57597-.2709 1.0544-.7127 1.37-1.2654.31563-.5528.45305-1.1894.39351-1.8231l.01598.0151c-.04474-.5297.02674-1.0628.20933-1.5621.1825-.4992.47189-.9526.84774-1.3285.37593-.3759.82932-.6653 1.32855-.8478.49933-.1825 1.03233-.254 1.56213-.2093Zm-5.63494-1.6882c.31876-.3206.5628-.7076.71472-1.1334.15192-.4258.20797-.88.16414-1.3299l.01597.0151c-.04475-.5298.02671-1.06311.20938-1.5625.18268-.49939.47218-.95287.84828-1.3288.3761-.37592.82966-.66522 1.32914-.84768.49948-.18246 1.03281-.2537 1.56261-.20872l-.016-.01514c.6335.05935 1.2699-.07814 1.8223-.39373.5525-.31557.9941-.79388 1.2648-1.36968.2707-.57581.3571-1.22107.2476-1.84782-.1095-.62675-.4097-1.20446-.8596-1.65435-.4498-.44989-1.0276-.750068-1.6543-.859585C10.7586.72387 10.1133.810343 9.53757 1.081c-.57584.27065-1.05413.71233-1.36968 1.26479-.31563.55246-.45313 1.18882-.39376 1.82229l-.01514-.01514c.04474.52971-.02674 1.06281-.20932 1.56207-.18259.49926-.47188.95266-.84778 1.32855-.37589.3759-.8293.66524-1.32856.84777-.49926.18259-1.03234.25407-1.56205.20933l.01513.01514c-.51758-.04643-1.03851.0386-1.51451.24709-.476.20848-.89167.53379-1.20848.94572-.316823.41184-.524536.89709-.603911 1.41059-.079367.5136-.027821 1.0389.14986 1.5272.177681.4884.475761.924.866601 1.2664.39085.3426.86182.5808 1.36927.6929.50744.1119 1.03495.094 1.53364-.0521.49869-.1462.95242-.4158 1.31915-.784h-.00167ZM31.787 4.98138h2.4979V17.1365H31.787V4.98138Zm3.9133 7.99212c-.0034-.8734.2524-1.7284.7352-2.4564.4827-.72797 1.1707-1.29633 1.9767-1.63299.806-.33674 1.6938-.42664 2.551-.25836.8571.16829 1.6451.58712 2.264 1.20358.6189.61637 1.0409 1.40267 1.2126 2.25917.1718.8564.0854 1.7446-.2481 2.552-.3334.8073-.899 1.4976-1.6251 1.9832-.7261.4857-1.5799.745-2.4535.745-.5798.0066-1.1551-.1025-1.6923-.3208-.5373-.2183-1.0256-.5415-1.4364-.9507-.4109-.4092-.7361-.8962-.9565-1.4326-.2205-.5363-.3318-1.1112-.3276-1.6911Zm6.3278 0c-.0104-.3765-.1316-.7416-.3483-1.0496-.2168-.308-.5196-.5453-.8705-.6822-.3509-.1369-.7343-.1673-1.1025-.0874-.3681.0799-.7045.2664-.9671.5364-.2626.27-.4399.6115-.5094.9817-.0697.3701-.0287.7526.1179 1.0996.1466.347.3922.643.706.8512.314.2081.6823.3192 1.0589.3192.258.0068.5146-.0398.7537-.1371.239-.0972.4553-.2428.6352-.4278.1799-.185.3196-.4053.4101-.6469.0905-.2416.1301-.4994.116-.7571Zm12.4527-4.16229v7.90549c0 2.7972-2.1816 3.9797-4.396 3.9797-.7796.0584-1.5604-.0991-2.2565-.4551-.696-.3561-1.2806-.897-1.6896-1.5633l2.1312-1.2321c.1719.3473.4458.6339.785.8213.3392.1874.7276.2668 1.1131.2274.2465.0342.4974.0125.7343-.0635.2369-.0759.4537-.2042.6343-.3751.1807-.1711.3205-.3805.4093-.613.0888-.2323.1241-.4817.1035-.7296v-.7611c-.2925.3578-.6647.6422-1.087.8301-.4223.188-.8827.2744-1.3444.2522-1.0985-.0346-2.1404-.4953-2.9053-1.2847-.7648-.7893-1.1924-1.8453-1.1924-2.9443 0-1.099.4276-2.155 1.1924-2.9443.7649-.78937 1.8068-1.25008 2.9053-1.28473.4617-.02212.9221.06425 1.3444.25222s.7945.47231 1.087.83016v-.84942l2.4314.00168Zm-2.4306 3.99569c.0168-.4025-.0873-.8009-.2988-1.1438-.2115-.343-.5208-.6147-.8881-.7803-.3673-.1657-.7757-.2176-1.1727-.1491-.397.0684-.7645.2541-1.0551.5333-.2906.279-.491.6386-.5755 1.0326-.0845.3939-.0492.8041.1016 1.1778.1506.3737.4096.6938.7437.919.334.2252.7279.3453 1.1307.3448.2625.0183.5258-.0185.7731-.1082.2474-.0896.4732-.2301.6629-.4123.1898-.1823.3393-.4022.4389-.6457.0995-.2435.1471-.5051.1393-.7681Zm3.8449.1666c-.0034-.8734.2523-1.7284.7352-2.4564.4827-.72797 1.1707-1.29633 1.9767-1.63299.806-.33674 1.6938-.42664 2.5509-.25836.8572.16829 1.6452.58712 2.2641 1.20358.6189.61637 1.0409 1.40267 1.2126 2.25917.1717.8564.0854 1.7446-.2481 2.552-.3335.8073-.899 1.4976-1.6251 1.9832-.7261.4857-1.5799.745-2.4535.745-.5798.0066-1.1552-.1025-1.6923-.3208-.5373-.2183-1.0256-.5415-1.4364-.9507-.4109-.4092-.7361-.8962-.9565-1.4326-.2205-.5363-.3319-1.1112-.3276-1.6911Zm6.3278 0c-.0104-.3765-.1316-.7416-.3483-1.0496-.2168-.308-.5196-.5453-.8705-.6822-.3509-.1369-.7344-.1673-1.1025-.0874s-.7045.2664-.9671.5364c-.2626.27-.4399.6115-.5095.9817-.0696.3701-.0286.7526.118 1.0996.1466.347.3921.643.706.8512.314.2081.6822.3192 1.0589.3192.258.0068.5146-.0398.7536-.1371.2391-.0972.4554-.2428.6353-.4278.1799-.185.3196-.4053.4101-.6469.0905-.2416.1301-.4994.116-.7571Zm3.6626-6.39351c0-.29642.0879-.58617.2525-.83262.1647-.24646.3988-.43856.6727-.55199.2738-.11343.5751-.14311.8659-.08528.2906.05782.5577.20056.7673.41016.2096.20959.3523.47663.4102.76735.0578.29071.0281.59205-.0853.8659-.1135.27385-.3055.50791-.552.67261-.2465.16467-.5362.25255-.8326.25255-.3963-.00395-.7752-.16307-1.0554-.44331-.2802-.28021-.4394-.65912-.4433-1.05537Zm.2523 2.2312h2.4986v8.32601h-2.502l.0034-8.32601Zm13.2847 4.16261c.0289.5503-.0513 1.1008-.236 1.62-.1846.5191-.47.9966-.8399 1.4051-.3698.4084-.8168.7398-1.3151.9749-.4983.2351-1.0382.3694-1.5886.3951-.4629.0253-.9256-.0528-1.3546-.2285-.429-.1757-.8134-.4447-1.1256-.7874v4.1134h-2.4978V8.81078h2.4978v.78214c.3123-.34246.6969-.61125 1.1258-.78677.429-.1756.8916-.25356 1.3544-.22833.5505.02565 1.0905.15987 1.589.39502.4984.23515.9454.56651 1.3153.97507.3699.40859.6553.88629.8399 1.40559.1845.5192.2645 1.0699.2354 1.6203Zm-2.4978 0c-.0097-.3896-.1342-.7678-.3578-1.0871-.2236-.3192-.5364-.5655-.8992-.7078-.3629-.1424-.7597-.1746-1.1408-.0925-.381.082-.7294.2746-1.0015.5536-.2722.2792-.456.6322-.5284 1.0153-.0724.383-.0302.7788.1212 1.138.1514.3592.4055.6656.7303.8812.3248.2155.7058.3304 1.0956.3303.2676.012.5348-.0328.7839-.1314.249-.0985.4745-.2486.6614-.4404.1871-.1918.3314-.4209.4236-.6724.0923-.2514.1304-.5196.1117-.7868Zm10.2054 1.6643c0 1.915-1.6643 2.7308-3.4624 2.7308-.7267.0657-1.4561-.0878-2.0943-.4411-.6382-.3533-1.1558-.8898-1.4859-1.5404l2.1639-1.2321c.0876.3007.2756.5624.5327.7411.257.1788.5682.264.8802.2413.5988 0 .8991-.1834.8991-.5156 0-.9167-4.0966-.4331-4.0966-3.3136 0-1.81573 1.5323-2.73075 3.264-2.73075.6509-.0206 1.2951.13381 1.8662.44708.571.31336 1.0479.77407 1.3801 1.33417l-2.1312 1.1488c-.0933-.218-.2489-.4038-.4474-.5341-.1985-.1303-.4306-.1992-.6677-.1984-.4332 0-.6998.1682-.6998.4659.0034.9495 4.0991.3163 4.0991 3.3969Zm9.1241-5.82676v8.32606h-2.4978v-.783c-.2885.3455-.6543.6177-1.0681.7943-.4138.1766-.8629.2526-1.312.2216-1.682 0-3.1117-1.1984-3.1117-3.4481V8.81134h2.4978v4.74496c-.021.1983.0017.3988.0664.5875.064.1887.1691.3611.307.5052.1379.144.3053.2563.4912.3291.185.0727.3843.1042.5836.0921.9159 0 1.5483-.5324 1.5483-1.7149V8.81386l2.4953-.00252Zm14.3218 3.21336v5.1117h-2.498v-4.8956c0-.8326-.399-1.3649-1.198-1.3649-.833 0-1.299.5828-1.299 1.5651v4.6954h-2.497v-4.8956c0-.8326-.4-1.3649-1.2-1.3649-.832 0-1.298.5828-1.298 1.5651v4.6954h-2.498V8.81033h2.498v.76532c.259-.33952.599-.60881.988-.78315.39-.17443.818-.24835 1.243-.21513.427-.02094.853.0693 1.236.2618.381.19243.707.48073.945.83656.276-.37232.643-.66835 1.065-.86044.423-.19209.887-.27392 1.349-.23792 1.912.00084 3.164 1.3658 3.164 3.44733Z"/>
  </g>
  <defs>
    <clipPath id="a">
      <path fill="#fff" d="M.114594.786499h110.733v22.427H.114594z"/>
    </clipPath>
  </defs>
</svg>
