<svg xmlns="http://www.w3.org/2000/svg" width="71" height="14" fill="none">
  <g fill="#C3C4C6" clip-path="url(#a)">
    <path fill-rule="evenodd" d="M8.98353 4.05546c-.57808-.36989-1.25773-.56732-1.95298-.56732V.121826c1.3905 0 2.74979.394862 3.90595 1.134654 1.1562.73978 2.0573 1.79128 2.5894 3.02149.5321 1.23022.6714 2.58395.4001 3.88994s-.9409 2.50569-1.9241 3.44719c-.9832.9416-2.23597 1.5828-3.59976 1.8426-1.36379.2598-2.77742.1264-4.06208-.3831-1.28465-.5096-2.38267-1.3725-3.1552-2.4797C.412335 9.48771 0 8.18602 0 6.85444h3.51528c0 .66579.20617 1.31664.59242 1.87023.38626.55359.93528.98504 1.57763 1.23984.64231.25479 1.34912.32149 2.03101.19159.6819-.1299 1.30825-.45053 1.7999-.9213.49156-.47082.82636-1.07062.96206-1.72362.1356-.653.066-1.32986-.2001-1.94495-.266-.61513-.71658-1.14088-1.29467-1.51077Z" clip-rule="evenodd"/>
    <path fill-rule="evenodd" d="M3.51527.121828c0 .44207-.09092.879812-.26758 1.288232-.17666.40842-.43559.77952-.76202 1.09211-.32642.31259-.71394.56055-1.14043.72972-.426497.16917-.883609.25625-1.34523985.25625L0 6.85445c.923264 0 1.83749-.17414 2.69048-.51249.85299-.33835 1.62803-.83427 2.28086-1.45946.65285-.62516 1.17072-1.36737 1.52404-2.18421.35332-.81684.53517-1.69232.53517-2.576464L3.51527.121828Z" clip-rule="evenodd"/>
    <path d="M44.1584 4.98669h-1.7056V10.175h1.7056V4.98669Zm-1.5159-.97116c.1783.17081.4011.25621.6686.25621.2676 0 .4869-.0854.6578-.25621.1711-.17791.2566-.39143.2566-.64052 0-.25621-.0855-.46973-.2566-.64053-.1709-.17081-.3902-.25621-.6578-.25621-.2675 0-.4903.0854-.6686.25621-.1712.1708-.2566.38432-.2566.64053 0 .24909.0854.46261.2566.64052ZM17.9827 10.1751V2.63818h1.7502v6.06368h3.4893v1.47324h-5.2395Z"/>
    <path fill-rule="evenodd" d="M26.3741 10.2926c-.5574 0-1.0628-.1174-1.5161-.35225-.446-.24197-.799-.56935-1.0591-.98216-.2601-.41277-.3901-.87537-.3901-1.38779 0-.51242.13-.97145.3901-1.37713.2601-.40567.6131-.72594 1.0591-.96077.4459-.24201.9513-.36299 1.5161-.36299s1.0702.11745 1.5161.35228c.4459.23487.7989.55871 1.059.97148.2601.40568.3902.86471.3902 1.37713s-.1301.97502-.3902 1.38779c-.2601.41281-.6131.74019-1.059.98216-.4459.23485-.9513.35225-1.5161.35225Zm0-1.48384c.2452 0 .4607-.04982.6466-.14946.1857-.10675.327-.25264.4236-.43769.104-.19215.156-.40924.156-.65121 0-.24197-.052-.45193-.156-.62984-.1041-.18504-.249-.32737-.4348-.42701-.1784-.10678-.3902-.16014-.6354-.16014-.2378 0-.4496.05336-.6355.16014-.1857.09964-.3307.24197-.4347.42701-.1041.18505-.1561.39854-.1561.64051 0 .23487.052.44839.1561.64054.104.18505.249.33094.4347.43769.1859.09964.3977.14946.6355.14946Zm4.3162 3.39484c.4533.1993.9773.2989 1.5718.2989.5797 0 1.0962-.1103 1.5496-.3309.4533-.2207.81-.5267 1.0702-.9181.2601-.3914.3903-.854.3903-1.38781V4.98703h-1.6724v.34858c-.1243-.10025-.2656-.18441-.4236-.25251-.2898-.13522-.6205-.20285-.9921-.20285-.4979 0-.9402.11388-1.3266.34161-.3865.22063-.6912.52666-.9141.9181-.223.38433-.3345.81845-.3345 1.30242 0 .47684.1115.91096.3345 1.30239.2229.39144.5276.70104.9141.92877.3864.22773.8287.34166 1.3266.34166.3641 0 .6949-.06764.9921-.20287.144-.06551.2741-.1427.3902-.2316v.32768c0 .36299-.1226.64409-.3679.84339-.2378.1993-.5685.2989-.9921.2989-.3419 0-.6354-.057-.8807-.1708-.2378-.1139-.4534-.2812-.6466-.5018l-1.0479 1.0035c.2601.3559.6132.6299 1.0591.822Zm2.4302-3.78977c-.171.09964-.3753.14947-.6131.14947-.2378 0-.446-.04983-.6243-.14947-.171-.09964-.3047-.23487-.4013-.40567-.0967-.17791-.145-.36653-.145-.56578 0-.21352.0483-.40567.145-.57648.0966-.17081.2341-.30603.4124-.40567.1784-.09965.3828-.14947.6132-.14947.2378 0 .4421.04982.6131.14947.1784.09964.3121.23486.4013.40567.0966.17081.1449.36296.1449.57648 0 .21349-.0483.40564-.1449.57645-.0892.1637-.2229.29536-.4013.395Zm5.7412 1.87877c-.5576 0-1.0631-.1174-1.5162-.35225-.4461-.24197-.799-.56935-1.0591-.98216-.2602-.41277-.3902-.87537-.3902-1.38779 0-.51242.13-.97145.3902-1.37713.2601-.40567.613-.72594 1.0591-.96077.4458-.24201.9513-.36299 1.5162-.36299.5645 0 1.07.11745 1.5158.35228.446.23487.799.55871 1.0591.97148.2601.40568.3902.86471.3902 1.37713s-.1301.97502-.3902 1.38779c-.2601.41281-.6131.74019-1.0591.98216-.4458.23485-.9513.35225-1.5158.35225Zm0-1.48384c.245 0 .4605-.04982.6464-.14946.1856-.10675.3269-.25264.4236-.43769.1041-.19215.1561-.40924.1561-.65121 0-.24197-.052-.45193-.1561-.62984-.104-.18504-.2489-.32737-.4348-.42701-.1782-.10678-.3902-.16014-.6352-.16014-.238 0-.45.05336-.6356.16014-.186.09964-.3308.24197-.4348.42701-.1041.18505-.1561.39854-.1561.64051 0 .23487.052.44839.1561.64054.104.18505.2488.33094.4348.43769.1856.09964.3976.14946.6356.14946Zm9.3961 1.47324c-.3638 0-.6985-.0676-1.0032-.2028-.1603-.0712-.3052-.15612-.4345-.25489v2.53949h-1.6835V4.98703h1.7056v.35807c.1237-.09691.2612-.1807.4124-.25133.3047-.14236.6394-.21352 1.0032-.21352.5129 0 .9664.11745 1.3601.35232.4014.23483.7136.5551.9364.96078.2306.40567.3456.86827.3456 1.38779 0 .51956-.115.98215-.3456 1.38783-.2228.40567-.535.72591-.9364.96078-.3937.23485-.8472.35225-1.3601.35225Zm-.3118-1.47317c.245 0 .457-.05339.6352-.16013.186-.10675.3308-.25268.4349-.43769.104-.18505.156-.395.156-.62987 0-.24197-.052-.45546-.156-.64051-.1041-.18504-.2489-.32737-.4349-.42701-.1782-.10678-.3863-.16014-.6243-.16014-.2376 0-.4496.05336-.6352.16014-.1786.09964-.3195.24197-.4236.42701-.1041.18505-.1561.39854-.1561.64051 0 .23487.0482.44482.1449.62987.104.18501.2488.33094.4348.43769.1856.10674.3937.16013.6243.16013Z" clip-rule="evenodd"/>
    <path d="M52.5694 10.1859c.3122.0783.6279.1174.9474.1174.6763 0 1.2114-.1494 1.6054-.44832.4011-.2989.6018-.701.6018-1.20632 0-.32738-.0629-.59072-.1894-.78997-.1262-.20639-.2897-.3701-.4904-.49108-.2007-.12099-.4127-.21709-.6356-.28826-.2228-.07116-.4348-.13165-.6352-.18148-.2007-.04982-.3642-.10674-.4907-.1708-.1262-.06406-.1895-.14947-.1895-.25621 0-.09964.0485-.17438.1448-.2242.0967-.05692.2415-.08537.4349-.08537.2007 0 .4049.03912.613.11742.2155.07827.4089.21352.5797.40567l.9699-.93943c-.245-.29893-.5646-.52313-.9586-.67256-.3864-.15657-.81-.23487-1.2708-.23487-.4384 0-.8212.07117-1.1481.2135-.3273.14236-.58.33807-.7582.58715-.1783.24197-.2676.53022-.2676.86473 0 .31314.0633.57292.1895.77931.1262.19925.29.35585.4904.4697.2007.11388.4127.20285.6356.26688.2228.06406.4348.12455.6355.18151.2004.04982.3642.11031.4904.18148.1339.06406.2007.16013.2007.28822 0 .09964-.0559.17791-.1673.23487-.1041.05692-.2563.0854-.457.0854-.29 0-.5575-.04982-.8025-.14946-.2454-.10675-.4574-.25264-.6356-.43769l-.9698.93944c.1859.19214.4088.36298.6689.51242.2675.14232.5537.25262.8584.33092Zm6.2649.1065c-.4977 0-.94-.0961-1.3263-.2883-.3793-.19924-.6763-.46969-.8918-.8113-.2158-.34872-.3234-.74726-.3234-1.19565V4.98669h1.7056v2.98912c0 .17791.0295.33094.0893.45903.0668.12812.1634.22776.2896.29893.1266.07116.2788.10674.457.10674.2528 0 .4535-.07473.6022-.22419.1487-.15657.2229-.37006.2229-.64051V4.98669h1.7056v2.99979c0 .4555-.1076.8576-.3234 1.20632-.2155.34161-.5126.61206-.8919.8113-.3789.1922-.8173.2883-1.3154.2883Zm5.0842-5.30537h-1.7056v5.18827h1.7056V7.14345c0-.17791.0373-.32737.1114-.44836.0819-.12098.1899-.21352.3234-.27755.134-.0712.2862-.10678.457-.10678.2454 0 .4496.07473.6131.2242.1712.14233.2566.34518.2566.60849v3.03185h1.7056V7.14345c0-.17791.0373-.32737.1115-.44836.0819-.12098.1894-.21352.3234-.27755.1335-.0712.2861-.10678.4569-.10678.2454 0 .4496.07473.6131.2242.1709.14233.2563.34518.2563.60849v3.03185h1.7059V6.96197c0-.43411-.0966-.80421-.29-1.11024-.1859-.31317-.4422-.55157-.7691-.71524-.3196-.17084-.6876-.25624-1.1038-.25624-.4236 0-.8064.08897-1.1481.26691-.2222.11335-.4162.25965-.5825.43887-.155-.18747-.3434-.34087-.5659-.46024-.2971-.16367-.6353-.24554-1.0142-.24554-.4014 0-.7618.08187-1.0813.24554-.1392.0681-.2654.14966-.3793.24469v-.38345Z"/>
  </g>
  <defs>
    <clipPath id="a">
      <path fill="#fff" d="M0 .121826h71.0086v13.4652H0z"/>
    </clipPath>
  </defs>
</svg>
