<svg xmlns="http://www.w3.org/2000/svg" width="119" height="24" fill="none">
  <g fill="#C3C4C6" clip-path="url(#a)">
    <path d="M69.0846 17.3393h2.6144V7.47779h-2.6144v9.86151Zm0-11.39935h2.6144V3.59473h-2.6144v2.34522Zm4.2996 14.62855h2.6144v-4.3444h.0381c.5573.8458 1.4611 1.4033 2.8449 1.4033 2.5376 0 4.2678-2.0184 4.2678-5.2094 0-3.0758-1.6724-5.20956-4.2869-5.20956-1.3456 0-2.2685.6344-2.9026 1.49941h-.0577V7.47756h-2.518V20.5685Zm4.9401-5.1133c-1.557 0-2.3835-1.1726-2.3835-2.9604 0-1.7685.6532-3.17178 2.2876-3.17178 1.6147 0 2.2679 1.30718 2.2679 3.17178 0 1.8647-.8455 2.9604-2.172 2.9604Zm10.0396 2.1722c2.4608 0 4.1524-1.1918 4.1524-3.1718 0-2.3068-1.8262-2.7682-3.4796-3.1141-1.4034-.2884-2.7103-.3653-2.7103-1.2111 0-.71128.6728-1.09573 1.6916-1.09573 1.1152 0 1.788.38445 1.9029 1.44173h2.3644c-.1918-1.97998-1.6338-3.26796-4.2286-3.26796-2.2495 0-4.0178 1.01885-4.0178 3.15266 0 2.153 1.7302 2.6335 3.4986 2.9796 1.3456.2691 2.5948.3652 2.5948 1.3071 0 .6921-.6532 1.1342-1.8065 1.1342-1.1729 0-1.9803-.4998-2.153-1.634h-2.4221c.1536 2.0953 1.7493 3.4794 4.6132 3.4794Zm14.0781-.2878V7.47815h-2.6144v5.69005c0 1.3072-.7497 2.2299-1.9798 2.2299-1.1152 0-1.6338-.6344-1.6338-1.7877V7.47815h-2.5953v6.57435c0 2.153 1.2301 3.5563 3.4218 3.5563 1.3843 0 2.1529-.519 2.8258-1.4225h.0577v1.1533h2.518Zm1.691-.0005h2.615v-5.7285c0-1.3072.711-2.15302 1.769-2.15302.961 0 1.518.57662 1.518 1.69162v6.1899h2.614v-5.7285c0-1.3072.673-2.15302 1.769-2.15302.961 0 1.519.57662 1.519 1.69162v6.1899h2.614v-6.632c0-2.15304-1.173-3.49866-3.249-3.49866-1.249 0-2.288.65357-2.96 1.73007h-.038c-.481-1.03803-1.481-1.73007-2.73-1.73007-1.365 0-2.326.69204-2.864 1.59551h-.058V7.47756h-2.519v9.86154ZM.945312 17.3393H3.55966V3.59473H.945312V17.3393Zm9.006818.2881c3.05647 0 5.15177-2.2683 5.15177-5.2094 0-2.94124-2.0953-5.20956-5.15177-5.20956-3.05653 0-5.15184 2.26832-5.15184 5.20956 0 2.9411 2.09531 5.2094 5.15184 5.2094Zm0-1.9992c-1.61475 0-2.49905-1.288-2.49905-3.2102 0-1.9224.8843-3.22954 2.49905-3.22954 1.59547 0 2.49897 1.30714 2.49897 3.22954 0 1.9222-.9035 3.2102-2.49897 3.2102Zm10.71147 5.0749c1.4609 0 2.7297-.346 3.5562-1.115.7305-.6728 1.1727-1.6147 1.1727-2.9987V7.47756h-2.5182v1.03809h-.0385c-.596-.8266-1.4994-1.30721-2.7297-1.30721-2.499 0-4.2675 1.88386-4.2675 4.82496 0 2.9796 2.153 4.7097 4.3444 4.7097 1.2495 0 1.9992-.4998 2.5759-1.1534h.0577v1.0765c0 1.3457-.7113 2.0569-2.1915 2.0569-1.2111 0-1.7685-.4806-1.98-1.0957H16.05c.2691 1.9223 1.9223 3.0757 4.6136 3.0757Zm-.0385-6.0553c-1.3456 0-2.2299-.9804-2.2299-2.6528 0-1.6532.8843-2.69121 2.2107-2.69121 1.5763 0 2.3452 1.23031 2.3452 2.67201 0 1.461-.6728 2.672-2.326 2.672Zm11.1219 2.9796c3.0565 0 5.1519-2.2683 5.1519-5.2094 0-2.94124-2.0954-5.20956-5.1519-5.20956-3.0564 0-5.1518 2.26832-5.1518 5.20956 0 2.9411 2.0954 5.2094 5.1518 5.2094Zm0-1.9992c-1.6147 0-2.4989-1.288-2.4989-3.2102 0-1.9224.8842-3.22954 2.4989-3.22954 1.5956 0 2.4991 1.30714 2.4991 3.22954 0 1.9222-.9035 3.2102-2.4991 3.2102Z"/>
    <path fill-rule="evenodd" d="M52.7537.785889c6.1929 0 11.2137 5.020461 11.2137 11.213511 0 6.1931-5.0208 11.2135-11.2137 11.2135-6.193 0-11.2135-5.0204-11.2135-11.2135 0-6.19305 5.0205-11.213511 11.2135-11.213511Zm-.4053.839101c-1.2793.18003-2.4974 1.20797-3.443 2.92718-.2743.49868-.5217 1.04962-.7374 1.64448 1.2858-.3231 2.6982-.51359 4.1804-.54305V1.62499Zm-5.1281 4.84099c.2682-.8417.5962-1.61609.9749-2.30446.4687-.85226 1.025-1.58823 1.6518-2.15349-3.4083.98985-6.0948 3.67636-7.0847 7.08466.5653-.62678 1.3012-1.18308 2.1535-1.65181.6884-.37862 1.4628-.70673 2.3045-.9749Zm-.2693.94771c-.3232 1.28574-.5136 2.69811-.5431 4.18041h-4.0286c.18-1.2793 1.2079-2.49743 2.9272-3.44295.4987-.27429 1.0496-.52177 1.6445-.73746Zm.2677 4.18041c.0335-1.61762.2664-3.13626.6517-4.47807 1.3418-.3853 2.8604-.6182 4.478-.65168v1.75094c-.6034 1.54488-1.8342 2.77561-3.3792 3.37881h-1.7505Zm-.8108.8106h-4.0286c.18 1.2793 1.2079 2.4974 2.9272 3.443.4987.2742 1.0496.5217 1.6445.7374-.3232-1.2857-.5136-2.6981-.5431-4.1804Zm1.4625 4.4781c-.3853-1.3418-.6182-2.8605-.6517-4.4781h1.7505c1.545.6032 2.7758 1.8339 3.3792 3.3788v1.7509c-1.6176-.0334-3.1362-.2663-4.478-.6516Zm-.6501.65c-.8417-.2682-1.6161-.5963-2.3045-.9749-.8523-.4687-1.5882-1.025-2.1535-1.6518.9899 3.4083 3.6764 6.0948 7.0847 7.0846-.6268-.5652-1.1831-1.3012-1.6518-2.1535-.3787-.6883-.7067-1.4627-.9749-2.3044Zm5.1281 4.841c-1.2793-.18-2.4974-1.208-3.443-2.9272-.2743-.4986-.5217-1.0496-.7374-1.6444 1.2858.323 2.6982.5135 4.1804.543v4.0286Zm3.312-.3831c.6268-.5652 1.1831-1.3012 1.6518-2.1535.3784-.6883.707-1.4627.975-2.3044.8416-.2682 1.6159-.5963 2.3044-.9749.8522-.4687 1.5884-1.025 2.1535-1.6518-.9901 3.4083-3.6763 6.0948-7.0847 7.0846Zm1.6793-4.1885c-.2159.5948-.4637 1.1458-.7379 1.6444-.9454 1.7192-2.1635 2.7472-3.4428 2.9272v-4.0286c1.4822-.0295 2.8946-.22 4.1807-.543Zm1.2166-1.2171c.5949-.2157 1.1461-.4632 1.6445-.7374 1.7196-.9456 2.7473-2.1637 2.9273-3.443h-4.0285c-.0297 1.4823-.2203 2.8947-.5433 4.1804Zm-.2674-4.1804c-.0337 1.6176-.2663 3.1363-.6521 4.4781-1.3416.3853-2.8602.6182-4.4778.6516v-1.7496c.6033-1.5454 1.8344-2.7767 3.3797-3.3801h1.7502Zm.8107-.8106h4.0285c-.18-1.2793-1.2077-2.49743-2.9273-3.44295-.4984-.27429-1.0496-.52177-1.6445-.73746.323 1.28574.5136 2.69811.5433 4.18041Zm-1.4628-4.47807c.3858 1.34181.6184 2.86045.6521 4.47807h-1.7502c-1.5453-.6034-2.7764-1.83466-3.3797-3.3801V6.46435c1.6176.03348 3.1362.26638 4.4778.65168Zm.6504-.65005c.8416.26817 1.6159.59628 2.3044.9749.8522.46873 1.5884 1.02503 2.1535 1.65181-.9901-3.4083-3.6763-6.09481-7.0847-7.08466.6268.56526 1.1831 1.30123 1.6518 2.15349.3784.68837.707 1.46276.975 2.30446ZM53.159 1.62499c1.2793.18003 2.4974 1.20797 3.4428 2.92718.2742.49869.522 1.04962.7379 1.64448-1.2861-.3231-2.6985-.51359-4.1807-.54305V1.62499Z" clip-rule="evenodd"/>
  </g>
  <defs>
    <clipPath id="a">
      <path fill="#fff" d="M.323242.786499h118.443v22.427H.323242z"/>
    </clipPath>
  </defs>
</svg>
