<svg xmlns="http://www.w3.org/2000/svg" width="12" height="12" fill="none">
  <g fill="#C3C4C6" clip-path="url(#a)">
    <path d="M6.00001 2.74934c-.74-.74-.74-1.940004 0-2.6800041.74.7400001.74 1.9400041 0 2.6800041Zm-2.28427.95517c-1.04659 0-1.89506-.84847-1.89506-1.89506 1.04659 0 1.89506.84847 1.89506 1.89506Zm4.55648 0c1.04659 0 1.89508-.84847 1.89508-1.89506-1.04661 0-1.89508.84847-1.89508 1.89506Zm1.91838 6.48609c-1.0466 0-1.89507-.84848-1.89507-1.89507 1.04659 0 1.89507.84847 1.89507 1.89507Zm-8.37554-.0056c1.04659 0 1.89506-.84849 1.89506-1.89508-1.04659 0-1.89506.84847-1.89506 1.89508Zm7.44141-4.18505c.74-.74 1.94003-.74 2.68003 0-.74.74-1.94003.74-2.68003 0Zm-9.1931765 0c.7399995-.74 1.9399965-.74 2.6799965 0-.74.74-1.939997.74-2.6799965 0ZM5.99999 7.25205c.69146 0 1.252-.56054 1.252-1.252s-.56054-1.252-1.252-1.252-1.252.56054-1.252 1.252.56054 1.252 1.252 1.252Z"/>
    <path d="M6.00001 8.17019c1.19853 0 2.17012-.97159 2.17012-2.17012 0-1.19852-.97159-2.17011-2.17012-2.17011-1.19852 0-2.17011.97159-2.17011 2.17011 0 1.19853.97159 2.17012 2.17011 2.17012Zm1.34467 2.03831H4.65503v1.1101h2.68965v-1.1101Z"/>
  </g>
  <defs>
    <clipPath id="a">
      <path fill="#fff" d="M0 0h12v12H0z"/>
    </clipPath>
  </defs>
</svg>
